<svg width="764" height="174" viewBox="0 0 764 174" fill="none" xmlns="http://www.w3.org/2000/svg">

<path d="M153.055 52.8192L161.843 0.989136H175.126L185.589 28.6427L196.707 0.989136H210.154L217.92 52.8192H204.473L200.671 22.9975L188.164 52.8192H182.81L170.834 22.9975L166.42 52.8192H153.055Z" fill="#004F79"/>

<path d="M255.849 12.4024H239.868V21.0339H254.991V32.4472H239.868V41.365H255.849V52.7783H226.421V0.948242H255.849V12.3615V12.4024Z" fill="#004F79"/>

<path d="M277.839 0.989136V52.8192H264.392V0.989136H277.839Z" fill="#004F79"/>

<path d="M288.711 52.8192V0.989136H302.158L326.927 32.6926V0.989136H340.374V52.8192H326.927L302.158 21.1157V52.8192H288.711Z" fill="#004F79"/>

<path d="M155.385 122.362V70.5322H175.412C179.132 70.5322 183.546 71.064 186.734 74.5821C188.533 76.5047 189.922 79.6956 189.922 84.2772C189.922 86.5271 189.513 88.4907 188.451 90.6588C187.347 92.6633 186.203 93.8496 184.241 94.7087C186.938 95.0359 189.677 96.2632 191.312 97.8177C193.396 99.8221 194.786 103.177 194.786 107.308C194.786 112.217 192.906 115.531 190.985 117.494C188.206 120.358 183.301 122.403 176.925 122.403H155.344L155.385 122.362ZM168.832 90.9861H171.325C172.715 90.9861 175.045 90.8224 176.434 89.3498C177.293 88.4907 177.66 87.0998 177.66 85.9135C177.66 84.6045 177.211 83.2545 176.434 82.4364C175.576 81.5773 173.941 80.8819 171.325 80.8819H168.832V90.9861ZM168.832 111.89H171.857C175.576 111.89 178.682 111.522 180.154 109.804C180.767 109.108 181.257 107.922 181.257 106.449C181.257 104.813 180.726 103.504 179.949 102.727C178.314 101.09 174.963 101.008 171.652 101.008H168.873V111.89H168.832Z" fill="#004F79"/>

<path d="M216.775 70.5322V122.362H203.328V70.5322H216.775Z" fill="#004F79"/>

<path d="M241.095 70.5322V110.949H257.239V122.362H227.647V70.5322H241.095Z" fill="#004F79"/>

<path d="M264.147 122.362V70.5322H281.763C286.954 70.5322 295.659 71.2277 302.322 77.6911C308.371 83.5 309.556 90.9861 309.556 96.5904C309.556 103.422 307.84 109.476 302.812 114.549C298.684 118.681 291.777 122.403 282.948 122.403H264.147V122.362ZM277.594 110.949H280.332C283.602 110.949 288.18 110.622 291.654 107.226C293.371 105.59 295.619 102.318 295.619 96.5904C295.619 91.7633 294.147 87.6726 291.572 85.259C288.384 82.3136 284.215 81.9864 280.864 81.9864H277.594V110.99V110.949Z" fill="#004F79"/>

<path d="M331.586 70.5322V101.213C331.586 103.381 331.668 106.736 334.243 109.231C335.796 110.704 338.289 111.726 340.619 111.726C342.949 111.726 345.36 110.785 346.832 109.476C349.938 106.736 349.856 102.931 349.856 100.068V70.5322H363.303V100.313C363.303 105.754 363.058 111.44 357.499 117.085C353.167 121.503 347.731 123.549 340.415 123.549C332.24 123.549 326.436 120.767 323.248 117.331C318.752 112.422 318.221 105.836 318.221 100.313V70.5322H331.668H331.586Z" fill="#004F79"/>

<path d="M374.135 122.362V70.5322H387.582L412.351 102.236V70.5322H425.798V122.362H412.351L387.582 90.6588V122.362H374.135Z" fill="#004F79"/>

<path d="M461.479 92.9906H488.21C488.21 103.258 486.125 110.54 479.913 116.308C474.477 121.34 468.264 122.853 461.684 122.853C452.365 122.853 445.989 119.417 441.82 115.163C437.937 111.276 434.381 104.977 434.381 96.4268C434.381 87.8771 437.651 81.4137 442.147 76.9957C446.397 72.7413 453.1 69.3868 462.256 69.3868C467.079 69.3868 472.27 70.4914 476.234 72.864C480.281 75.3594 483.591 79.4501 485.472 83.5L472.678 88.7771C471.738 86.3635 470.267 84.6454 468.959 83.5818C466.711 81.7001 464.3 81.0046 461.725 81.0046C458.537 81.0046 455.267 82.15 452.855 84.5636C449.831 87.5908 448.359 92.4179 448.359 96.4677C448.359 101.213 450.076 105.099 452.487 107.676C454.981 110.335 458.005 111.644 461.97 111.644C464.3 111.644 466.997 111.276 469.409 109.231C470.635 108.208 472.147 106.367 472.597 103.463H461.561V92.9497L461.479 92.9906Z" fill="#004F79"/>

<path d="M500.186 106.817C503.047 109.558 507.42 112.094 512.08 112.094C514.818 112.094 516.412 111.235 517.27 110.294C518.047 109.517 518.578 108.331 518.578 107.022C518.578 105.999 518.21 104.854 517.107 103.913C515.799 102.727 513.755 102.195 510.445 101.172L506.971 100.068C504.804 99.3721 501.616 98.1858 499.532 95.854C496.875 92.9905 496.589 89.3088 496.589 86.6907C496.589 80.3091 499.082 76.4229 501.33 74.173C503.987 71.514 508.319 69.264 514.614 69.264C519.723 69.264 525.731 70.9003 530.595 73.4775L525.241 83.9499C521.194 80.7591 518.17 80.4727 516.371 80.4727C515.063 80.4727 513.265 80.8 511.957 82.0272C511.18 82.8045 510.649 83.6635 510.649 84.809C510.649 85.7498 510.813 86.4453 511.344 87.1407C511.753 87.5907 512.652 88.5316 515.84 89.4724L519.968 90.6997C523.238 91.7224 526.63 92.8678 529.369 95.8131C532.025 98.5949 532.72 101.499 532.72 105.058C532.72 109.804 531.535 114.385 527.816 118.108C523.401 122.526 518.047 123.385 512.529 123.385C509.259 123.385 506.153 123.058 502.352 121.667C501.494 121.34 498.224 120.112 494.504 117.535L500.267 106.654L500.186 106.817Z" fill="#004F79"/>

<path d="M562.067 70.5322C565.95 70.5322 570.936 71.1458 574.737 75.1139C577.68 78.1411 579.151 82.6409 579.151 86.7726C579.151 91.1906 577.598 95.0768 575.023 97.5722C573.021 99.5358 570.282 100.681 567.871 101.131L584.097 122.362H567.421L554.546 102.481V122.362H541.099V70.5322H562.067ZM554.546 93.7678H557.121C559.124 93.7678 562.026 93.236 563.661 91.6815C564.683 90.6588 565.377 88.9407 565.377 87.3453C565.377 85.7499 564.764 84.0727 563.579 83.0091C562.353 81.7818 560.064 81.0046 557.121 81.0046H554.546V93.8087V93.7678Z" fill="#004F79"/>

<path d="M621.373 113.649H602.572L599.097 122.362H584.874L604.738 70.5322H619.411L638.907 122.362H624.561L621.373 113.649ZM617.817 103.381L612.013 86.609L606.332 103.381H617.817Z" fill="#004F79"/>

<path d="M658.362 70.5322V101.213C658.362 103.381 658.444 106.736 661.019 109.231C662.572 110.704 665.066 111.726 667.395 111.726C669.725 111.726 672.136 110.785 673.608 109.476C676.714 106.736 676.632 102.931 676.632 100.068V70.5322H690.08V100.313C690.08 105.754 689.834 111.44 684.276 117.085C679.943 121.503 674.507 123.549 667.191 123.549C659.057 123.549 653.213 120.767 650.024 117.331C645.528 112.422 644.997 105.836 644.997 100.313V70.5322H658.444H658.362Z" fill="#004F79"/>

<path d="M698.581 122.362L707.369 70.5322H720.652L731.116 98.1858L742.233 70.5322H755.68L763.446 122.362H749.999L746.198 92.5406L733.691 122.362H728.336L716.361 92.5406L711.946 122.362H698.581Z" fill="#004F79"/>

<path d="M157.51 140.771V161.225H165.072V165.356H152.728V140.812H157.51V140.771Z" fill="#004F79"/>

<path d="M183.382 160.856C182.892 162.043 181.094 165.806 175.535 165.806C172.96 165.806 170.998 165.07 169.445 163.556C167.687 161.879 166.952 159.834 166.952 157.338C166.952 154.188 168.219 152.225 169.363 151.08C171.243 149.239 173.45 148.83 175.371 148.83C178.6 148.83 180.48 150.139 181.584 151.448C183.26 153.493 183.505 155.988 183.505 157.707V158.075H171.57C171.57 159.016 171.815 160.079 172.347 160.775C172.837 161.429 173.818 162.288 175.535 162.288C177.252 162.288 178.519 161.47 179.254 160.202L183.382 160.856ZM179.254 155.211C178.886 153.043 177.129 152.02 175.453 152.02C173.777 152.02 172.061 153.084 171.693 155.211H179.254Z" fill="#004F79"/>

<path d="M186.938 149.361H191.434V151.775C192.129 150.425 193.069 149.73 193.437 149.566C194.132 149.116 195.031 148.87 196.094 148.87C196.871 148.87 197.484 149.034 198.015 149.239L197.443 153.452C196.871 153.043 196.257 152.879 195.358 152.879C194.5 152.879 193.274 153.043 192.375 154.188C191.516 155.252 191.475 156.602 191.475 157.707V165.356H186.979V149.402L186.938 149.361Z" fill="#004F79"/>

<path d="M200.181 149.361H204.677V151.407C205.535 150.22 207.048 148.83 209.623 148.83C211.012 148.83 213.097 149.239 214.323 150.793C215.427 152.143 215.59 153.739 215.59 155.293V165.315H211.094V156.643C211.094 155.743 211.094 154.352 210.236 153.534C209.541 152.798 208.56 152.716 208.151 152.716C206.966 152.716 206.067 153.125 205.372 154.107C204.718 155.129 204.677 156.275 204.677 157.216V165.356H200.181V149.402V149.361Z" fill="#004F79"/>

<path d="M235.454 160.856C234.964 162.043 233.165 165.806 227.607 165.806C225.032 165.806 223.07 165.07 221.517 163.556C219.759 161.879 219.023 159.834 219.023 157.338C219.023 154.188 220.291 152.225 221.435 151.08C223.315 149.239 225.522 148.83 227.443 148.83C230.672 148.83 232.552 150.139 233.656 151.448C235.332 153.493 235.577 155.988 235.577 157.707V158.075H223.642C223.642 159.016 223.887 160.079 224.419 160.775C224.909 161.429 225.89 162.288 227.607 162.288C229.323 162.288 230.59 161.47 231.326 160.202L235.454 160.856ZM231.326 155.211C230.958 153.043 229.201 152.02 227.525 152.02C225.849 152.02 224.133 153.084 223.765 155.211H231.326Z" fill="#004F79"/>

<path d="M239.01 149.361H243.506V151.407C244.364 150.22 245.877 148.83 248.452 148.83C249.841 148.83 251.926 149.239 253.152 150.793C254.255 152.143 254.419 153.739 254.419 155.293V165.315H249.923V156.643C249.923 155.743 249.923 154.352 249.065 153.534C248.37 152.798 247.389 152.716 246.98 152.716C245.795 152.716 244.896 153.125 244.201 154.107C243.547 155.129 243.506 156.275 243.506 157.216V165.356H239.01V149.402V149.361Z" fill="#004F79"/>

<path d="M271.708 149.361V158.402C271.708 159.261 271.79 160.406 272.648 161.184C273.22 161.675 274.079 162.002 274.937 162.002C275.795 162.002 276.654 161.675 277.226 161.184C278.125 160.365 278.166 159.22 278.166 158.402V149.361H282.662V159.138C282.662 160.57 282.499 162.493 280.7 164.047C279.229 165.356 276.858 165.847 274.937 165.847C273.016 165.847 270.645 165.315 269.174 164.047C267.417 162.493 267.212 160.57 267.212 159.138V149.361H271.708Z" fill="#004F79"/>

<path d="M286.954 149.361H291.45V151.407C292.308 150.22 293.82 148.83 296.395 148.83C297.785 148.83 299.869 149.239 301.096 150.793C302.199 152.143 302.363 153.739 302.363 155.293V165.315H297.867V156.643C297.867 155.743 297.867 154.352 297.008 153.534C296.313 152.798 295.332 152.716 294.924 152.716C293.738 152.716 292.839 153.125 292.144 154.107C291.49 155.129 291.45 156.275 291.45 157.216V165.356H286.954V149.402V149.361Z" fill="#004F79"/>

<path d="M318.834 138.48H323.33V165.315H318.834V163.27C317.199 165.602 315.074 165.847 313.93 165.847C309.025 165.847 305.796 162.002 305.796 157.338C305.796 152.675 308.984 148.87 313.725 148.87C314.951 148.87 317.322 149.075 318.834 151.448V138.48ZM310.455 157.338C310.455 159.875 312.295 161.879 314.87 161.879C317.445 161.879 319.284 159.875 319.284 157.338C319.284 154.802 317.445 152.838 314.87 152.838C312.295 152.838 310.455 154.802 310.455 157.338Z" fill="#004F79"/>

<path d="M341.6 140.771V161.225H349.162V165.356H336.818V140.812H341.6V140.771Z" fill="#004F79"/>

<path d="M367.431 160.856C366.941 162.043 365.143 165.806 359.584 165.806C357.009 165.806 355.047 165.07 353.494 163.556C351.736 161.879 351.001 159.834 351.001 157.338C351.001 154.188 352.268 152.225 353.412 151.08C355.292 149.239 357.499 148.83 359.42 148.83C362.649 148.83 364.53 150.139 365.633 151.448C367.309 153.493 367.554 155.988 367.554 157.707V158.075H355.619C355.619 159.016 355.865 160.079 356.396 160.775C356.886 161.429 357.867 162.288 359.584 162.288C361.301 162.288 362.568 161.47 363.303 160.202L367.431 160.856ZM363.303 155.211C362.936 153.043 361.178 152.02 359.502 152.02C357.826 152.02 356.11 153.084 355.742 155.211H363.303Z" fill="#004F79"/>

<path d="M370.988 138.48H375.484V151.448C376.342 150.261 377.854 148.87 380.429 148.87C381.819 148.87 383.903 149.279 385.129 150.834C386.233 152.184 386.396 153.779 386.396 155.334V165.356H381.901V156.684C381.901 155.784 381.901 154.393 381.042 153.575C380.347 152.838 379.366 152.757 378.958 152.757C377.772 152.757 376.873 153.166 376.178 154.147C375.524 155.17 375.484 156.316 375.484 157.256V165.397H370.988V138.562V138.48Z" fill="#004F79"/>

<path d="M390.647 149.361H395.143V151.775C395.838 150.425 396.819 149.73 397.146 149.566C397.841 149.116 398.74 148.87 399.803 148.87C400.579 148.87 401.192 149.034 401.724 149.239L401.151 153.452C400.579 153.043 399.966 152.879 399.067 152.879C398.209 152.879 396.982 153.043 396.083 154.188C395.225 155.252 395.184 156.602 395.184 157.707V165.356H390.688V149.402L390.647 149.361Z" fill="#004F79"/>

<path d="M418.768 160.856C418.277 162.043 416.479 165.806 410.92 165.806C408.345 165.806 406.383 165.07 404.83 163.556C403.073 161.879 402.337 159.834 402.337 157.338C402.337 154.188 403.645 152.225 404.748 151.08C406.629 149.239 408.836 148.83 410.757 148.83C413.986 148.83 415.866 150.139 416.969 151.448C418.645 153.493 418.89 155.988 418.89 157.707V158.075H406.956C406.956 159.016 407.201 160.079 407.732 160.775C408.223 161.429 409.203 162.288 410.92 162.288C412.637 162.288 413.904 161.47 414.64 160.202L418.768 160.856ZM414.64 155.211C414.272 153.043 412.514 152.02 410.838 152.02C409.163 152.02 407.446 153.084 407.078 155.211H414.64Z" fill="#004F79"/>

<path d="M422.323 149.361H426.819V151.407C427.678 150.22 429.19 148.83 431.765 148.83C433.155 148.83 435.239 149.239 436.465 150.793C437.569 152.143 437.732 153.739 437.732 155.293V165.315H433.236V156.643C433.236 155.743 433.236 154.352 432.378 153.534C431.683 152.798 430.743 152.716 430.294 152.716C429.108 152.716 428.209 153.125 427.555 154.107C426.901 155.129 426.86 156.275 426.86 157.216V165.356H422.364V149.402L422.323 149.361Z" fill="#004F79"/>

<path d="M466.18 160.856C465.689 162.043 463.891 165.806 458.332 165.806C455.757 165.806 453.795 165.07 452.242 163.556C450.485 161.879 449.749 159.834 449.749 157.338C449.749 154.188 451.057 152.225 452.161 151.08C454.041 149.239 456.248 148.83 458.169 148.83C461.398 148.83 463.278 150.139 464.381 151.448C466.057 153.493 466.302 155.988 466.302 157.707V158.075H454.368C454.368 159.016 454.613 160.079 455.144 160.775C455.635 161.429 456.616 162.288 458.332 162.288C460.049 162.288 461.316 161.47 462.052 160.202L466.18 160.856ZM462.052 155.211C461.684 153.043 459.926 152.02 458.251 152.02C456.575 152.02 454.858 153.084 454.49 155.211H462.052Z" fill="#004F79"/>

<path d="M471.984 139.953C473.455 139.953 474.681 141.18 474.681 142.653C474.681 144.125 473.455 145.352 471.984 145.352C470.512 145.352 469.286 144.125 469.286 142.653C469.286 141.18 470.512 139.953 471.984 139.953ZM474.232 149.361V165.315H469.736V149.361H474.232Z" fill="#004F79"/>

<path d="M478.482 149.361H482.978V151.407C483.837 150.22 485.349 148.83 487.924 148.83C489.314 148.83 491.398 149.239 492.624 150.793C493.728 152.143 493.891 153.739 493.891 155.293V165.315H489.395V156.643C489.395 155.743 489.395 154.352 488.537 153.534C487.842 152.798 486.902 152.716 486.453 152.716C485.267 152.716 484.368 153.125 483.714 154.107C483.06 155.129 483.019 156.275 483.019 157.216V165.356H478.523V149.402L478.482 149.361Z" fill="#004F79"/>

<path d="M512.161 140.771V161.225H519.723V165.356H507.379V140.812H512.161V140.771Z" fill="#004F79"/>

<path d="M538.034 160.856C537.543 162.043 535.745 165.806 530.186 165.806C527.611 165.806 525.649 165.07 524.096 163.556C522.339 161.879 521.603 159.834 521.603 157.338C521.603 154.188 522.911 152.225 524.014 151.08C525.895 149.239 528.102 148.83 530.023 148.83C533.252 148.83 535.132 150.139 536.235 151.448C537.911 153.493 538.156 155.988 538.156 157.707V158.075H526.222C526.222 159.016 526.467 160.079 526.998 160.775C527.489 161.429 528.47 162.288 530.186 162.288C531.903 162.288 533.17 161.47 533.906 160.202L538.034 160.856ZM533.906 155.211C533.538 153.043 531.78 152.02 530.104 152.02C528.429 152.02 526.712 153.084 526.344 155.211H533.906Z" fill="#004F79"/>

<path d="M546.086 151.448C547.68 149.239 549.928 148.87 551.277 148.87C555.977 148.87 559.124 152.511 559.124 157.338C559.124 162.165 555.895 165.847 551.195 165.847C550.173 165.847 547.843 165.683 546.127 163.27V165.315H541.631V138.48H546.127V151.448H546.086ZM545.636 157.338C545.636 159.875 547.475 161.879 550.05 161.879C552.625 161.879 554.465 159.875 554.465 157.338C554.465 154.802 552.625 152.838 550.05 152.838C547.475 152.838 545.636 154.802 545.636 157.338Z" fill="#004F79"/>

<path d="M578.171 160.856C577.68 162.043 575.882 165.806 570.323 165.806C567.748 165.806 565.786 165.07 564.233 163.556C562.475 161.879 561.74 159.834 561.74 157.338C561.74 154.188 563.048 152.225 564.151 151.08C566.031 149.239 568.238 148.83 570.159 148.83C573.388 148.83 575.269 150.139 576.372 151.448C578.048 153.493 578.293 155.988 578.293 157.707V158.075H566.358C566.358 159.016 566.604 160.079 567.135 160.775C567.625 161.429 568.606 162.288 570.323 162.288C572.04 162.288 573.307 161.47 574.042 160.202L578.171 160.856ZM574.042 155.211C573.675 153.043 571.917 152.02 570.241 152.02C568.565 152.02 566.849 153.084 566.481 155.211H574.042Z" fill="#004F79"/>

<path d="M581.767 149.361H586.263V151.407C587.122 150.22 588.634 148.83 591.209 148.83C592.599 148.83 594.683 149.239 595.909 150.793C597.013 152.143 597.176 153.739 597.176 155.293V165.315H592.68V156.643C592.68 155.743 592.68 154.352 591.822 153.534C591.127 152.798 590.187 152.716 589.737 152.716C588.552 152.716 587.653 153.125 586.999 154.107C586.345 155.129 586.304 156.275 586.304 157.216V165.356H581.808V149.402L581.767 149.361Z" fill="#004F79"/>

<path d="M614.465 138.48V165.315H609.969V138.48H614.465Z" fill="#004F79"/>

<path d="M630.937 149.361H635.433V165.315H630.937V163.27C629.302 165.602 627.177 165.847 626.032 165.847C621.128 165.847 617.899 162.002 617.899 157.338C617.899 152.675 621.087 148.87 625.828 148.87C627.054 148.87 629.425 149.075 630.937 151.448V149.402V149.361ZM622.558 157.338C622.558 159.875 624.397 161.879 626.972 161.879C629.547 161.879 631.387 159.875 631.387 157.338C631.387 154.802 629.547 152.839 626.972 152.839C624.397 152.839 622.558 154.802 622.558 157.338Z" fill="#004F79"/>

<path d="M639.684 149.361H644.18V151.407C645.038 150.22 646.55 148.83 649.125 148.83C650.515 148.83 652.6 149.239 653.826 150.793C654.929 152.143 655.093 153.739 655.093 155.293V165.315H650.597V156.643C650.597 155.743 650.597 154.352 649.738 153.534C649.044 152.798 648.104 152.716 647.654 152.716C646.469 152.716 645.569 153.125 644.916 154.107C644.262 155.129 644.221 156.275 644.221 157.216V165.356H639.725V149.402L639.684 149.361Z" fill="#004F79"/>

<path d="M671.483 149.361H675.979V164.579C675.979 166.993 675.774 169.529 673.771 171.533C672.668 172.638 670.747 173.783 667.477 173.783C664.371 173.783 662.532 172.883 661.51 171.942C660.243 170.879 659.303 168.997 658.935 167.197H663.799C663.962 167.933 664.371 168.67 664.902 169.12C665.801 169.938 666.987 169.979 667.641 169.979C668.949 169.979 669.766 169.529 670.379 168.997C671.401 168.015 671.523 166.747 671.523 165.479V163.229C669.97 165.602 667.845 165.888 666.619 165.888C664.493 165.888 662.654 165.234 661.101 163.72C659.916 162.534 658.567 160.488 658.567 157.379C658.567 154.884 659.466 152.552 661.019 151.039C662.409 149.689 664.371 148.911 666.496 148.911C669.48 148.911 670.87 150.548 671.483 151.489V149.443V149.361ZM664.616 153.943C663.88 154.598 663.186 155.661 663.186 157.338C663.186 158.729 663.717 159.752 664.371 160.447C665.311 161.47 666.537 161.838 667.6 161.838C668.662 161.838 669.807 161.429 670.583 160.734C671.524 159.875 672.014 158.606 672.014 157.297C672.014 155.784 671.36 154.761 670.706 154.107C669.807 153.166 668.785 152.798 667.6 152.798C666.169 152.798 665.188 153.37 664.616 153.902V153.943Z" fill="#004F79"/>

<path d="M0.518555 69.3869V0.989258H68.8984L48.4621 21.4431H20.9548V48.9331L0.518555 69.3869Z" fill="#AAD1E6"/>

<path d="M74.1709 102.195H101.637V74.7049L122.074 54.2511V122.649H53.7346L74.1709 102.195Z" fill="#004F79"/>

<path d="M20.9548 72.0868V102.195H51.037L30.6008 122.649H0.518555V92.5406L20.9548 72.0868Z" fill="#0077B6"/>

<path d="M74.1709 102.195L53.7346 122.649H81.201V102.195H74.1709Z" fill="#0077B6"/>

<path d="M20.9548 41.897H0.518555V69.3869L20.9548 48.9331V41.897Z" fill="#0077B6"/>

<path d="M91.9915 0.989258L71.5552 21.4431V51.5512H101.637L122.074 31.0973V0.989258H91.9915Z" fill="#CD5038"/>

</svg>