<svg xmlns="http://www.w3.org/2000/svg" xmlns:xlink="http://www.w3.org/1999/xlink" width="1032" height="856" viewBox="0 0 1032 856">
  <defs>
    <clipPath id="clip-Background">
      <rect width="1032" height="856"/>
    </clipPath>
  </defs>
  <g id="Background" clip-path="url(#clip-Background)">
    <rect width="1032" height="856" fill="#fff"/>
    <path id="Vereinigungsmenge_36" data-name="Vereinigungsmenge 36" d="M876.225,778.181a78.438,78.438,0,0,1,.692-10.418,78.97,78.97,0,0,1-20.854,0,77.888,77.888,0,1,1-154.391,0,78.969,78.969,0,0,1-20.853,0,77.888,77.888,0,1,1-154.392,0,78.969,78.969,0,0,1-20.853,0,77.888,77.888,0,1,1-154.391,0,78.969,78.969,0,0,1-20.853,0,77.888,77.888,0,1,1-154.391,0,78.969,78.969,0,0,1-20.854,0,77.82,77.82,0,1,1-66.769-66.71,78.777,78.777,0,0,1,0-20.835,77.819,77.819,0,1,1,0-154.255,78.778,78.778,0,0,1,0-20.835,77.819,77.819,0,1,1,0-154.255,78.778,78.778,0,0,1,0-20.835,77.819,77.819,0,1,1,0-154.255,78.777,78.777,0,0,1,0-20.835A77.954,77.954,0,0,1,0,77.819,77.888,77.888,0,1,1,155.083,88.236a78.986,78.986,0,0,1,20.854,0,77.888,77.888,0,1,1,154.391,0,78.986,78.986,0,0,1,20.854,0,77.888,77.888,0,1,1,154.391,0,78.986,78.986,0,0,1,20.854,0,77.888,77.888,0,1,1,154.391,0,78.986,78.986,0,0,1,20.854,0,77.888,77.888,0,1,1,154.391,0,78.987,78.987,0,0,1,20.854,0,77.9,77.9,0,1,1,77.2,67.4,78.62,78.62,0,0,1-10.427-.691,78.755,78.755,0,0,1,0,20.835,77.819,77.819,0,1,1,0,154.255,78.755,78.755,0,0,1,0,20.835,77.819,77.819,0,1,1,0,154.255,78.755,78.755,0,0,1,0,20.835,77.819,77.819,0,1,1,0,154.256,78.755,78.755,0,0,1,0,20.835,77.82,77.82,0,1,1-67.461,77.128Zm9.735,0a68.164,68.164,0,1,0,68.153-68.093,68.984,68.984,0,0,0-12.49,1.134A78.011,78.011,0,0,1,887.095,765.7,68.809,68.809,0,0,0,885.96,778.181Zm-175.245,0a68.151,68.151,0,0,0,136.3,0,68.819,68.819,0,0,0-1.135-12.48,78,78,0,0,1-54.523-54.479,69.343,69.343,0,0,0-24.98,0A78.011,78.011,0,0,1,711.85,765.7,68.814,68.814,0,0,0,710.715,778.181Zm-175.245,0a68.151,68.151,0,0,0,136.3,0,68.824,68.824,0,0,0-1.135-12.48,78,78,0,0,1-54.523-54.479,69.343,69.343,0,0,0-24.98,0A78.011,78.011,0,0,1,536.6,765.7,68.82,68.82,0,0,0,535.47,778.181Zm-175.245,0a68.151,68.151,0,0,0,136.3,0,68.819,68.819,0,0,0-1.135-12.48,78,78,0,0,1-54.523-54.479,69.343,69.343,0,0,0-24.98,0A78.011,78.011,0,0,1,361.36,765.7,68.809,68.809,0,0,0,360.225,778.181Zm-175.245,0a68.151,68.151,0,0,0,136.3,0,68.824,68.824,0,0,0-1.135-12.48,78,78,0,0,1-54.523-54.479,69.343,69.343,0,0,0-24.98,0A78.011,78.011,0,0,1,186.115,765.7,68.811,68.811,0,0,0,184.98,778.181ZM29.7,730.031a68.121,68.121,0,0,0,96.38,96.3,67.611,67.611,0,0,0,19.96-48.146A68.819,68.819,0,0,0,144.9,765.7a78,78,0,0,1-54.523-54.479,68.983,68.983,0,0,0-12.49-1.134A67.741,67.741,0,0,0,29.7,730.031ZM866.49,758.724a68.991,68.991,0,0,0,12.491-1.134A77.991,77.991,0,0,1,933.5,703.115a69.162,69.162,0,0,0,0-24.96,78,78,0,0,1-54.523-54.479,69.348,69.348,0,0,0-24.98,0,78.011,78.011,0,0,1-54.528,54.48,69.168,69.168,0,0,0,0,24.958A78,78,0,0,1,854,757.59,69,69,0,0,0,866.49,758.724Zm-175.245,0a68.993,68.993,0,0,0,12.491-1.134,77.991,77.991,0,0,1,54.522-54.474,69.159,69.159,0,0,0,0-24.96,78,78,0,0,1-54.523-54.479,69.348,69.348,0,0,0-24.98,0,78.011,78.011,0,0,1-54.528,54.48,69.164,69.164,0,0,0,0,24.958,78,78,0,0,1,54.527,54.475A69,69,0,0,0,691.245,758.724Zm-175.245,0a68.993,68.993,0,0,0,12.491-1.134,77.991,77.991,0,0,1,54.522-54.474,69.168,69.168,0,0,0,0-24.96,78,78,0,0,1-54.523-54.479,69.348,69.348,0,0,0-24.98,0,78.011,78.011,0,0,1-54.528,54.48,69.165,69.165,0,0,0,0,24.958,78,78,0,0,1,54.527,54.475A69,69,0,0,0,516,758.724Zm-175.245,0a68.992,68.992,0,0,0,12.491-1.134,77.991,77.991,0,0,1,54.522-54.474,69.165,69.165,0,0,0,0-24.96,78,78,0,0,1-54.523-54.479,69.348,69.348,0,0,0-24.98,0,78.011,78.011,0,0,1-54.528,54.48,69.168,69.168,0,0,0,0,24.958,78,78,0,0,1,54.527,54.475A69,69,0,0,0,340.755,758.724Zm-175.245,0A68.992,68.992,0,0,0,178,757.59a77.991,77.991,0,0,1,54.522-54.474,69.162,69.162,0,0,0,0-24.96A78,78,0,0,1,178,623.677a69.348,69.348,0,0,0-24.98,0,78.011,78.011,0,0,1-54.528,54.48,69.166,69.166,0,0,0,0,24.958,78,78,0,0,1,54.527,54.475A69,69,0,0,0,165.51,758.724Zm740.41-28.693a67.878,67.878,0,0,0-15.753,24.49,68.518,68.518,0,0,0,40.264-40.229A67.951,67.951,0,0,0,905.92,730.031Zm-175.245,0a67.878,67.878,0,0,0-15.753,24.49,68.518,68.518,0,0,0,40.264-40.229A67.952,67.952,0,0,0,730.675,730.031Zm-175.245,0a67.877,67.877,0,0,0-15.753,24.49,68.519,68.519,0,0,0,40.264-40.229A67.953,67.953,0,0,0,555.43,730.031Zm-175.245,0a67.878,67.878,0,0,0-15.753,24.49A68.518,68.518,0,0,0,404.7,714.292,67.952,67.952,0,0,0,380.185,730.031Zm-175.245,0a67.878,67.878,0,0,0-15.753,24.49,68.518,68.518,0,0,0,40.264-40.229A67.952,67.952,0,0,0,204.94,730.031Zm613.357,8.75a67.946,67.946,0,0,0,24.51,15.739,68.514,68.514,0,0,0-40.264-40.229A67.879,67.879,0,0,0,818.3,738.781Zm-175.245,0a67.947,67.947,0,0,0,24.51,15.739A68.514,68.514,0,0,0,627.3,714.291,67.879,67.879,0,0,0,643.053,738.781Zm-175.245,0a67.946,67.946,0,0,0,24.51,15.739,68.514,68.514,0,0,0-40.264-40.229A67.878,67.878,0,0,0,467.808,738.781Zm-175.245,0a67.946,67.946,0,0,0,24.51,15.739,68.514,68.514,0,0,0-40.264-40.229A67.879,67.879,0,0,0,292.563,738.781Zm-175.245,0a67.946,67.946,0,0,0,24.51,15.739,68.514,68.514,0,0,0-40.264-40.229A67.878,67.878,0,0,0,117.318,738.781Zm671.976-37.728a78.774,78.774,0,0,1,0-20.835,78.976,78.976,0,0,1-20.854,0,78.755,78.755,0,0,1,0,20.835,78.978,78.978,0,0,1,20.854,0Zm-175.245,0a78.777,78.777,0,0,1,0-20.835,78.976,78.976,0,0,1-20.854,0,78.751,78.751,0,0,1,0,20.835,78.978,78.978,0,0,1,20.854,0Zm-175.245,0a78.777,78.777,0,0,1,0-20.835,78.976,78.976,0,0,1-20.853,0,78.757,78.757,0,0,1,0,20.835,78.978,78.978,0,0,1,20.854,0Zm-175.245,0a78.777,78.777,0,0,1,0-20.835,78.976,78.976,0,0,1-20.854,0,78.758,78.758,0,0,1,0,20.835,78.978,78.978,0,0,1,20.854,0Zm690.553-29.875a68.091,68.091,0,1,0,0-136.181,69,69,0,0,0-12.49,1.134,78.011,78.011,0,0,1-54.528,54.479,69.167,69.167,0,0,0,0,24.958,78,78,0,0,1,54.527,54.475A68.993,68.993,0,0,0,954.112,671.179Zm-175.245,0a68.987,68.987,0,0,0,12.491-1.134,77.99,77.99,0,0,1,54.522-54.474,69.159,69.159,0,0,0,0-24.96,78,78,0,0,1-54.523-54.479,69.347,69.347,0,0,0-24.98,0,78.011,78.011,0,0,1-54.528,54.479,69.165,69.165,0,0,0,0,24.958,78,78,0,0,1,54.527,54.475A68.992,68.992,0,0,0,778.867,671.179Zm-175.245,0a68.987,68.987,0,0,0,12.491-1.134,77.99,77.99,0,0,1,54.522-54.474,69.163,69.163,0,0,0,0-24.96,78,78,0,0,1-54.523-54.479,69.346,69.346,0,0,0-24.98,0A78.011,78.011,0,0,1,536.6,590.611a69.165,69.165,0,0,0,0,24.958,78,78,0,0,1,54.527,54.475A68.993,68.993,0,0,0,603.622,671.179Zm-175.245,0a68.986,68.986,0,0,0,12.491-1.134,77.99,77.99,0,0,1,54.522-54.474,69.163,69.163,0,0,0,0-24.96,78,78,0,0,1-54.523-54.479,69.347,69.347,0,0,0-24.98,0,78.011,78.011,0,0,1-54.527,54.479,69.165,69.165,0,0,0,0,24.958,78,78,0,0,1,54.527,54.475A68.994,68.994,0,0,0,428.377,671.179Zm-175.245,0a68.987,68.987,0,0,0,12.491-1.134,77.99,77.99,0,0,1,54.522-54.474,69.163,69.163,0,0,0,0-24.96,78,78,0,0,1-54.523-54.479,69.347,69.347,0,0,0-24.98,0,78.011,78.011,0,0,1-54.528,54.479,69.167,69.167,0,0,0,0,24.958,78,78,0,0,1,54.527,54.475A68.993,68.993,0,0,0,253.133,671.179ZM29.7,554.941A68.09,68.09,0,0,0,77.888,671.179a68.987,68.987,0,0,0,12.491-1.134A77.99,77.99,0,0,1,144.9,615.57a69.164,69.164,0,0,0,0-24.96,78,78,0,0,1-54.523-54.479A68.988,68.988,0,0,0,77.888,535,67.741,67.741,0,0,0,29.7,554.941Zm788.6,87.545a67.878,67.878,0,0,0-15.753,24.49,68.518,68.518,0,0,0,40.264-40.229A67.951,67.951,0,0,0,818.3,642.486Zm-175.245,0a67.879,67.879,0,0,0-15.753,24.49,68.518,68.518,0,0,0,40.264-40.229A67.952,67.952,0,0,0,643.053,642.486Zm-175.245,0a67.878,67.878,0,0,0-15.753,24.49,68.518,68.518,0,0,0,40.264-40.229A67.952,67.952,0,0,0,467.808,642.486Zm-175.245,0a67.879,67.879,0,0,0-15.753,24.49,68.518,68.518,0,0,0,40.264-40.229A67.952,67.952,0,0,0,292.563,642.486Zm-175.245,0a67.878,67.878,0,0,0-15.753,24.49,68.518,68.518,0,0,0,40.264-40.229A67.952,67.952,0,0,0,117.318,642.486Zm788.6,8.75a67.946,67.946,0,0,0,24.51,15.738,68.513,68.513,0,0,0-40.264-40.229A67.88,67.88,0,0,0,905.92,651.236Zm-175.245,0a67.948,67.948,0,0,0,24.51,15.738,68.513,68.513,0,0,0-40.264-40.229A67.88,67.88,0,0,0,730.675,651.236Zm-175.245,0a67.948,67.948,0,0,0,24.51,15.738,68.514,68.514,0,0,0-40.264-40.229A67.879,67.879,0,0,0,555.43,651.236Zm-175.245,0a67.948,67.948,0,0,0,24.51,15.738,68.513,68.513,0,0,0-40.264-40.229A67.88,67.88,0,0,0,380.185,651.236Zm-175.245,0a67.948,67.948,0,0,0,24.51,15.738,68.513,68.513,0,0,0-40.264-40.229A67.879,67.879,0,0,0,204.94,651.236Zm671.976-37.728a78.774,78.774,0,0,1,0-20.835,78.966,78.966,0,0,1-20.854,0,78.762,78.762,0,0,1,0,20.835,78.979,78.979,0,0,1,20.854,0Zm-175.245,0a78.77,78.77,0,0,1,0-20.835,78.966,78.966,0,0,1-20.853,0,78.762,78.762,0,0,1,0,20.835,78.978,78.978,0,0,1,20.854,0Zm-175.245,0a78.781,78.781,0,0,1,0-20.835,78.966,78.966,0,0,1-20.853,0,78.76,78.76,0,0,1,0,20.835,78.978,78.978,0,0,1,20.854,0Zm-175.245,0a78.774,78.774,0,0,1,0-20.835,78.966,78.966,0,0,1-20.853,0,78.757,78.757,0,0,1,0,20.835,78.978,78.978,0,0,1,20.854,0Zm-175.245,0a78.775,78.775,0,0,1,0-20.835,78.966,78.966,0,0,1-20.854,0,78.76,78.76,0,0,1,0,20.835,78.978,78.978,0,0,1,20.854,0ZM866.49,583.634A69,69,0,0,0,878.98,582.5,77.991,77.991,0,0,1,933.5,528.025a69.163,69.163,0,0,0,0-24.96,78,78,0,0,1-54.523-54.479,69.345,69.345,0,0,0-24.98,0,78.011,78.011,0,0,1-54.528,54.48,69.169,69.169,0,0,0,0,24.958A78,78,0,0,1,854,582.5,69.005,69.005,0,0,0,866.49,583.634Zm-175.245,0a69,69,0,0,0,12.491-1.134,77.99,77.99,0,0,1,54.522-54.474,69.159,69.159,0,0,0,0-24.96,78,78,0,0,1-54.523-54.479,69.346,69.346,0,0,0-24.98,0,78.011,78.011,0,0,1-54.528,54.48,69.165,69.165,0,0,0,0,24.958A78,78,0,0,1,678.754,582.5,69,69,0,0,0,691.245,583.634Zm-175.245,0a69,69,0,0,0,12.491-1.134,77.99,77.99,0,0,1,54.522-54.474,69.168,69.168,0,0,0,0-24.96,78,78,0,0,1-54.523-54.479,69.345,69.345,0,0,0-24.98,0,78.011,78.011,0,0,1-54.528,54.48,69.166,69.166,0,0,0,0,24.958A78,78,0,0,1,503.509,582.5,69,69,0,0,0,516,583.634Zm-175.245,0a69,69,0,0,0,12.491-1.134,77.99,77.99,0,0,1,54.522-54.474,69.165,69.165,0,0,0,0-24.96,78,78,0,0,1-54.523-54.479,69.346,69.346,0,0,0-24.98,0,78.011,78.011,0,0,1-54.528,54.48,69.169,69.169,0,0,0,0,24.958A78,78,0,0,1,328.264,582.5,69,69,0,0,0,340.755,583.634Zm-175.245,0A69,69,0,0,0,178,582.5a77.99,77.99,0,0,1,54.522-54.474,69.163,69.163,0,0,0,0-24.96A78,78,0,0,1,178,448.587a69.346,69.346,0,0,0-24.98,0,78.011,78.011,0,0,1-54.528,54.48,69.166,69.166,0,0,0,0,24.958A78,78,0,0,1,153.019,582.5,69,69,0,0,0,165.51,583.634Zm740.41-28.693a67.878,67.878,0,0,0-15.753,24.49A68.518,68.518,0,0,0,930.431,539.2,67.951,67.951,0,0,0,905.92,554.941Zm-175.245,0a67.879,67.879,0,0,0-15.753,24.49A68.518,68.518,0,0,0,755.186,539.2,67.952,67.952,0,0,0,730.675,554.941Zm-175.245,0a67.877,67.877,0,0,0-15.753,24.49A68.518,68.518,0,0,0,579.941,539.2,67.953,67.953,0,0,0,555.43,554.941Zm-175.245,0a67.879,67.879,0,0,0-15.753,24.49A68.518,68.518,0,0,0,404.7,539.2,67.952,67.952,0,0,0,380.185,554.941Zm-175.245,0a67.878,67.878,0,0,0-15.753,24.49A68.518,68.518,0,0,0,229.451,539.2,67.952,67.952,0,0,0,204.94,554.941Zm613.357,8.75a67.945,67.945,0,0,0,24.51,15.738A68.514,68.514,0,0,0,802.544,539.2,67.879,67.879,0,0,0,818.3,563.691Zm-175.245,0a67.946,67.946,0,0,0,24.51,15.738A68.514,68.514,0,0,0,627.3,539.2,67.879,67.879,0,0,0,643.053,563.691Zm-175.245,0a67.945,67.945,0,0,0,24.51,15.738A68.514,68.514,0,0,0,452.054,539.2,67.878,67.878,0,0,0,467.808,563.691Zm-175.245,0a67.945,67.945,0,0,0,24.51,15.738A68.514,68.514,0,0,0,276.809,539.2,67.879,67.879,0,0,0,292.563,563.691Zm-175.245,0a67.945,67.945,0,0,0,24.51,15.738A68.514,68.514,0,0,0,101.564,539.2,67.879,67.879,0,0,0,117.318,563.691Zm671.976-37.728a78.774,78.774,0,0,1,0-20.835,78.961,78.961,0,0,1-20.854,0,78.755,78.755,0,0,1,0,20.835,78.992,78.992,0,0,1,20.854,0Zm-175.245,0a78.778,78.778,0,0,1,0-20.835,78.961,78.961,0,0,1-20.854,0,78.751,78.751,0,0,1,0,20.835,78.992,78.992,0,0,1,20.854,0Zm-175.245,0a78.778,78.778,0,0,1,0-20.835,78.96,78.96,0,0,1-20.853,0,78.756,78.756,0,0,1,0,20.835,78.992,78.992,0,0,1,20.854,0Zm-175.245,0a78.778,78.778,0,0,1,0-20.835,78.961,78.961,0,0,1-20.854,0,78.758,78.758,0,0,1,0,20.835,78.992,78.992,0,0,1,20.854,0Zm690.553-29.875a68.091,68.091,0,1,0,0-136.181,68.986,68.986,0,0,0-12.49,1.134,78.011,78.011,0,0,1-54.528,54.479,69.167,69.167,0,0,0,0,24.958,78,78,0,0,1,54.527,54.475A69,69,0,0,0,954.112,496.088Zm-175.245,0a68.993,68.993,0,0,0,12.491-1.134,77.99,77.99,0,0,1,54.522-54.474,69.159,69.159,0,0,0,0-24.96,78,78,0,0,1-54.523-54.479,69.348,69.348,0,0,0-24.98,0,78.011,78.011,0,0,1-54.528,54.479,69.165,69.165,0,0,0,0,24.958,78,78,0,0,1,54.527,54.475A69,69,0,0,0,778.867,496.088Zm-175.245,0a68.993,68.993,0,0,0,12.491-1.134,77.99,77.99,0,0,1,54.522-54.474,69.163,69.163,0,0,0,0-24.96,78,78,0,0,1-54.523-54.479,69.348,69.348,0,0,0-24.98,0A78.011,78.011,0,0,1,536.6,415.521a69.165,69.165,0,0,0,0,24.958,78,78,0,0,1,54.527,54.475A69,69,0,0,0,603.622,496.088Zm-175.245,0a68.992,68.992,0,0,0,12.491-1.134,77.99,77.99,0,0,1,54.522-54.474,69.164,69.164,0,0,0,0-24.96,78,78,0,0,1-54.523-54.479,69.348,69.348,0,0,0-24.98,0,78.01,78.01,0,0,1-54.527,54.479,69.165,69.165,0,0,0,0,24.958,78,78,0,0,1,54.527,54.475A69,69,0,0,0,428.377,496.088Zm-175.245,0a68.992,68.992,0,0,0,12.491-1.134,77.99,77.99,0,0,1,54.522-54.474,69.164,69.164,0,0,0,0-24.96,78,78,0,0,1-54.523-54.479,69.348,69.348,0,0,0-24.98,0,78.011,78.011,0,0,1-54.528,54.479,69.167,69.167,0,0,0,0,24.958,78,78,0,0,1,54.527,54.475A69,69,0,0,0,253.133,496.088ZM29.7,379.85A68.091,68.091,0,0,0,77.888,496.088a68.992,68.992,0,0,0,12.491-1.134A77.99,77.99,0,0,1,144.9,440.48a69.165,69.165,0,0,0,0-24.96,78,78,0,0,1-54.523-54.479,68.98,68.98,0,0,0-12.49-1.134A67.741,67.741,0,0,0,29.7,379.85ZM818.3,467.4a67.878,67.878,0,0,0-15.753,24.49,68.518,68.518,0,0,0,40.264-40.229A67.951,67.951,0,0,0,818.3,467.4Zm-175.245,0a67.879,67.879,0,0,0-15.753,24.49,68.518,68.518,0,0,0,40.264-40.229A67.952,67.952,0,0,0,643.053,467.4Zm-175.245,0a67.878,67.878,0,0,0-15.753,24.49,68.519,68.519,0,0,0,40.264-40.229A67.952,67.952,0,0,0,467.808,467.4Zm-175.245,0a67.879,67.879,0,0,0-15.753,24.49,68.518,68.518,0,0,0,40.264-40.229A67.952,67.952,0,0,0,292.563,467.4Zm-175.245,0a67.879,67.879,0,0,0-15.753,24.49,68.518,68.518,0,0,0,40.264-40.229A67.952,67.952,0,0,0,117.318,467.4Zm788.6,8.75a67.945,67.945,0,0,0,24.51,15.739,68.513,68.513,0,0,0-40.264-40.229A67.878,67.878,0,0,0,905.92,476.146Zm-175.245,0a67.946,67.946,0,0,0,24.51,15.739,68.513,68.513,0,0,0-40.264-40.229A67.879,67.879,0,0,0,730.675,476.146Zm-175.245,0a67.946,67.946,0,0,0,24.51,15.739,68.514,68.514,0,0,0-40.264-40.229A67.878,67.878,0,0,0,555.43,476.146Zm-175.245,0a67.946,67.946,0,0,0,24.51,15.739,68.513,68.513,0,0,0-40.264-40.229A67.878,67.878,0,0,0,380.185,476.146Zm-175.245,0a67.946,67.946,0,0,0,24.51,15.739,68.514,68.514,0,0,0-40.264-40.229A67.877,67.877,0,0,0,204.94,476.146Zm671.976-37.728a78.774,78.774,0,0,1,0-20.835,78.971,78.971,0,0,1-20.854,0,78.762,78.762,0,0,1,0,20.835,78.989,78.989,0,0,1,20.854,0Zm-175.245,0a78.77,78.77,0,0,1,0-20.835,78.971,78.971,0,0,1-20.853,0,78.762,78.762,0,0,1,0,20.835,78.988,78.988,0,0,1,20.854,0Zm-175.245,0a78.781,78.781,0,0,1,0-20.835,78.971,78.971,0,0,1-20.853,0,78.76,78.76,0,0,1,0,20.835,78.988,78.988,0,0,1,20.854,0Zm-175.245,0a78.774,78.774,0,0,1,0-20.835,78.971,78.971,0,0,1-20.853,0,78.757,78.757,0,0,1,0,20.835,78.988,78.988,0,0,1,20.854,0Zm-175.245,0a78.775,78.775,0,0,1,0-20.835,78.971,78.971,0,0,1-20.854,0,78.759,78.759,0,0,1,0,20.835,78.988,78.988,0,0,1,20.854,0ZM866.49,408.543a68.991,68.991,0,0,0,12.491-1.134A77.991,77.991,0,0,1,933.5,352.934a69.163,69.163,0,0,0,0-24.96A78,78,0,0,1,878.98,273.5a69.348,69.348,0,0,0-24.98,0,78.011,78.011,0,0,1-54.528,54.479,69.169,69.169,0,0,0,0,24.958A78,78,0,0,1,854,407.409,69,69,0,0,0,866.49,408.543Zm-175.245,0a68.993,68.993,0,0,0,12.491-1.134,77.99,77.99,0,0,1,54.522-54.474,69.159,69.159,0,0,0,0-24.96A78,78,0,0,1,703.735,273.5a69.348,69.348,0,0,0-24.98,0,78.011,78.011,0,0,1-54.528,54.479,69.165,69.165,0,0,0,0,24.958,78,78,0,0,1,54.527,54.475A69,69,0,0,0,691.245,408.543Zm-175.245,0a68.993,68.993,0,0,0,12.491-1.134,77.99,77.99,0,0,1,54.522-54.474,69.168,69.168,0,0,0,0-24.96A78,78,0,0,1,528.49,273.5a69.348,69.348,0,0,0-24.98,0,78.011,78.011,0,0,1-54.528,54.479,69.166,69.166,0,0,0,0,24.958,78,78,0,0,1,54.527,54.475A69,69,0,0,0,516,408.543Zm-175.245,0a68.992,68.992,0,0,0,12.491-1.134,77.99,77.99,0,0,1,54.522-54.474,69.166,69.166,0,0,0,0-24.96A78,78,0,0,1,353.245,273.5a69.348,69.348,0,0,0-24.98,0,78.011,78.011,0,0,1-54.528,54.479,69.169,69.169,0,0,0,0,24.958,78,78,0,0,1,54.527,54.475A69,69,0,0,0,340.755,408.543Zm-175.245,0A68.992,68.992,0,0,0,178,407.409a77.99,77.99,0,0,1,54.522-54.474,69.163,69.163,0,0,0,0-24.96A78,78,0,0,1,178,273.5a69.348,69.348,0,0,0-24.98,0,78.011,78.011,0,0,1-54.528,54.479,69.166,69.166,0,0,0,0,24.958,78,78,0,0,1,54.527,54.475A69,69,0,0,0,165.51,408.543ZM905.92,379.85a67.878,67.878,0,0,0-15.753,24.49,68.518,68.518,0,0,0,40.264-40.229A67.95,67.95,0,0,0,905.92,379.85Zm-175.245,0a67.879,67.879,0,0,0-15.753,24.49,68.518,68.518,0,0,0,40.264-40.229A67.951,67.951,0,0,0,730.675,379.85Zm-175.245,0a67.878,67.878,0,0,0-15.753,24.49,68.518,68.518,0,0,0,40.264-40.229A67.952,67.952,0,0,0,555.43,379.85Zm-175.245,0a67.879,67.879,0,0,0-15.753,24.49A68.518,68.518,0,0,0,404.7,364.111,67.951,67.951,0,0,0,380.185,379.85Zm-175.245,0a67.879,67.879,0,0,0-15.753,24.49,68.518,68.518,0,0,0,40.264-40.229A67.951,67.951,0,0,0,204.94,379.85ZM818.3,388.6a67.946,67.946,0,0,0,24.51,15.738,68.513,68.513,0,0,0-40.264-40.229A67.88,67.88,0,0,0,818.3,388.6Zm-175.245,0a67.947,67.947,0,0,0,24.51,15.738A68.513,68.513,0,0,0,627.3,364.11,67.879,67.879,0,0,0,643.053,388.6Zm-175.245,0a67.947,67.947,0,0,0,24.51,15.738,68.514,68.514,0,0,0-40.264-40.229A67.878,67.878,0,0,0,467.808,388.6Zm-175.245,0a67.947,67.947,0,0,0,24.51,15.738,68.513,68.513,0,0,0-40.264-40.229A67.879,67.879,0,0,0,292.563,388.6Zm-175.245,0a67.947,67.947,0,0,0,24.51,15.738,68.513,68.513,0,0,0-40.264-40.229A67.879,67.879,0,0,0,117.318,388.6Zm671.976-37.728a78.774,78.774,0,0,1,0-20.835,78.961,78.961,0,0,1-20.854,0,78.755,78.755,0,0,1,0,20.835,78.981,78.981,0,0,1,20.854,0Zm-175.245,0a78.778,78.778,0,0,1,0-20.835,78.961,78.961,0,0,1-20.854,0,78.752,78.752,0,0,1,0,20.835,78.981,78.981,0,0,1,20.854,0Zm-175.245,0a78.778,78.778,0,0,1,0-20.835,78.96,78.96,0,0,1-20.853,0,78.757,78.757,0,0,1,0,20.835,78.982,78.982,0,0,1,20.854,0Zm-175.245,0a78.778,78.778,0,0,1,0-20.835,78.961,78.961,0,0,1-20.854,0,78.759,78.759,0,0,1,0,20.835,78.981,78.981,0,0,1,20.854,0ZM954.112,321a68.091,68.091,0,1,0,0-136.181,68.991,68.991,0,0,0-12.49,1.134,78.011,78.011,0,0,1-54.528,54.48,69.167,69.167,0,0,0,0,24.958,78,78,0,0,1,54.527,54.475A69,69,0,0,0,954.112,321Zm-175.245,0a68.993,68.993,0,0,0,12.491-1.134,77.99,77.99,0,0,1,54.522-54.474,69.159,69.159,0,0,0,0-24.96,78,78,0,0,1-54.523-54.479,69.347,69.347,0,0,0-24.98,0,78.011,78.011,0,0,1-54.528,54.48,69.165,69.165,0,0,0,0,24.958,78,78,0,0,1,54.527,54.475A69,69,0,0,0,778.867,321Zm-175.245,0a68.993,68.993,0,0,0,12.491-1.134,77.99,77.99,0,0,1,54.522-54.474,69.163,69.163,0,0,0,0-24.96,78,78,0,0,1-54.523-54.479,69.347,69.347,0,0,0-24.98,0A78.011,78.011,0,0,1,536.6,240.43a69.165,69.165,0,0,0,0,24.958,78,78,0,0,1,54.527,54.475A69,69,0,0,0,603.622,321Zm-175.245,0a68.992,68.992,0,0,0,12.491-1.134,77.99,77.99,0,0,1,54.522-54.474,69.164,69.164,0,0,0,0-24.96,78,78,0,0,1-54.523-54.479,69.347,69.347,0,0,0-24.98,0,78.011,78.011,0,0,1-54.527,54.48,69.165,69.165,0,0,0,0,24.958,78,78,0,0,1,54.527,54.475A69,69,0,0,0,428.377,321Zm-175.245,0a68.992,68.992,0,0,0,12.491-1.134,77.99,77.99,0,0,1,54.522-54.474,69.164,69.164,0,0,0,0-24.96,78,78,0,0,1-54.523-54.479,69.348,69.348,0,0,0-24.98,0,78.011,78.011,0,0,1-54.528,54.48,69.167,69.167,0,0,0,0,24.958,78,78,0,0,1,54.527,54.475A69,69,0,0,0,253.133,321ZM29.7,204.76A68.091,68.091,0,0,0,77.888,321a68.992,68.992,0,0,0,12.491-1.134A77.99,77.99,0,0,1,144.9,265.389a69.165,69.165,0,0,0,0-24.96,78,78,0,0,1-54.523-54.479,68.984,68.984,0,0,0-12.49-1.134A67.741,67.741,0,0,0,29.7,204.76ZM818.3,292.3a67.878,67.878,0,0,0-15.753,24.49,68.518,68.518,0,0,0,40.264-40.229A67.951,67.951,0,0,0,818.3,292.3Zm-175.245,0a67.879,67.879,0,0,0-15.753,24.49,68.518,68.518,0,0,0,40.264-40.229A67.952,67.952,0,0,0,643.053,292.3Zm-175.245,0a67.878,67.878,0,0,0-15.753,24.49,68.519,68.519,0,0,0,40.264-40.229A67.952,67.952,0,0,0,467.808,292.3Zm-175.245,0a67.879,67.879,0,0,0-15.753,24.49,68.518,68.518,0,0,0,40.264-40.229A67.952,67.952,0,0,0,292.563,292.3Zm-175.245,0a67.879,67.879,0,0,0-15.753,24.49,68.518,68.518,0,0,0,40.264-40.229A67.952,67.952,0,0,0,117.318,292.3Zm788.6,8.75a67.945,67.945,0,0,0,24.51,15.738,68.513,68.513,0,0,0-40.264-40.229A67.878,67.878,0,0,0,905.92,301.055Zm-175.245,0a67.947,67.947,0,0,0,24.51,15.738,68.513,68.513,0,0,0-40.264-40.229A67.879,67.879,0,0,0,730.675,301.055Zm-175.245,0a67.947,67.947,0,0,0,24.51,15.738,68.514,68.514,0,0,0-40.264-40.229A67.878,67.878,0,0,0,555.43,301.055Zm-175.245,0a67.947,67.947,0,0,0,24.51,15.738,68.513,68.513,0,0,0-40.264-40.229A67.878,67.878,0,0,0,380.185,301.055Zm-175.245,0a67.947,67.947,0,0,0,24.51,15.738,68.514,68.514,0,0,0-40.264-40.229A67.878,67.878,0,0,0,204.94,301.055Zm671.976-37.728a78.774,78.774,0,0,1,0-20.835,78.964,78.964,0,0,1-20.854,0,78.762,78.762,0,0,1,0,20.835,78.989,78.989,0,0,1,20.854,0Zm-175.245,0a78.771,78.771,0,0,1,0-20.835,78.963,78.963,0,0,1-20.853,0,78.762,78.762,0,0,1,0,20.835,78.988,78.988,0,0,1,20.854,0Zm-175.245,0a78.781,78.781,0,0,1,0-20.835,78.963,78.963,0,0,1-20.853,0,78.76,78.76,0,0,1,0,20.835,78.988,78.988,0,0,1,20.854,0Zm-175.245,0a78.774,78.774,0,0,1,0-20.835,78.963,78.963,0,0,1-20.853,0,78.757,78.757,0,0,1,0,20.835,78.988,78.988,0,0,1,20.854,0Zm-175.245,0a78.775,78.775,0,0,1,0-20.835,78.963,78.963,0,0,1-20.854,0,78.759,78.759,0,0,1,0,20.835,78.988,78.988,0,0,1,20.854,0ZM866.49,233.453a68.99,68.99,0,0,0,12.491-1.134A77.991,77.991,0,0,1,933.5,177.844a69.163,69.163,0,0,0,0-24.96A78,78,0,0,1,878.98,98.406a69.348,69.348,0,0,0-24.98,0,78.011,78.011,0,0,1-54.528,54.48,69.168,69.168,0,0,0,0,24.958A78,78,0,0,1,854,232.318,69,69,0,0,0,866.49,233.453Zm-175.245,0a68.991,68.991,0,0,0,12.491-1.134,77.99,77.99,0,0,1,54.522-54.474,69.159,69.159,0,0,0,0-24.96,78,78,0,0,1-54.523-54.479,69.348,69.348,0,0,0-24.98,0,78.011,78.011,0,0,1-54.528,54.48,69.165,69.165,0,0,0,0,24.958,78,78,0,0,1,54.527,54.475A69,69,0,0,0,691.245,233.453Zm-175.245,0a68.991,68.991,0,0,0,12.491-1.134,77.99,77.99,0,0,1,54.522-54.474,69.168,69.168,0,0,0,0-24.96A78,78,0,0,1,528.49,98.406a69.348,69.348,0,0,0-24.98,0,78.011,78.011,0,0,1-54.528,54.48,69.166,69.166,0,0,0,0,24.958,78,78,0,0,1,54.527,54.475A69,69,0,0,0,516,233.453Zm-175.245,0a68.991,68.991,0,0,0,12.491-1.134,77.99,77.99,0,0,1,54.522-54.474,69.166,69.166,0,0,0,0-24.96,78,78,0,0,1-54.523-54.479,69.348,69.348,0,0,0-24.98,0,78.011,78.011,0,0,1-54.528,54.48,69.168,69.168,0,0,0,0,24.958,78,78,0,0,1,54.527,54.475A69,69,0,0,0,340.755,233.453Zm-175.245,0A68.991,68.991,0,0,0,178,232.318a77.99,77.99,0,0,1,54.522-54.474,69.163,69.163,0,0,0,0-24.96A78,78,0,0,1,178,98.406a69.348,69.348,0,0,0-24.98,0,78.011,78.011,0,0,1-54.528,54.48,69.166,69.166,0,0,0,0,24.958,78,78,0,0,1,54.527,54.475A69,69,0,0,0,165.51,233.453ZM905.92,204.76a67.878,67.878,0,0,0-15.753,24.49,68.518,68.518,0,0,0,40.264-40.229A67.95,67.95,0,0,0,905.92,204.76Zm-175.245,0a67.879,67.879,0,0,0-15.753,24.49,68.518,68.518,0,0,0,40.264-40.229A67.951,67.951,0,0,0,730.675,204.76Zm-175.245,0a67.877,67.877,0,0,0-15.753,24.49,68.519,68.519,0,0,0,40.264-40.229A67.952,67.952,0,0,0,555.43,204.76Zm-175.245,0a67.879,67.879,0,0,0-15.753,24.49A68.518,68.518,0,0,0,404.7,189.021,67.952,67.952,0,0,0,380.185,204.76Zm-175.245,0a67.878,67.878,0,0,0-15.753,24.49,68.518,68.518,0,0,0,40.264-40.229A67.952,67.952,0,0,0,204.94,204.76ZM818.3,213.51a67.946,67.946,0,0,0,24.51,15.738,68.513,68.513,0,0,0-40.264-40.229A67.879,67.879,0,0,0,818.3,213.51Zm-175.245,0a67.947,67.947,0,0,0,24.51,15.738A68.513,68.513,0,0,0,627.3,189.02,67.879,67.879,0,0,0,643.053,213.51Zm-175.245,0a67.946,67.946,0,0,0,24.51,15.738,68.514,68.514,0,0,0-40.264-40.229A67.878,67.878,0,0,0,467.808,213.51Zm-175.245,0a67.946,67.946,0,0,0,24.51,15.738,68.514,68.514,0,0,0-40.264-40.229A67.879,67.879,0,0,0,292.563,213.51Zm-175.245,0a67.946,67.946,0,0,0,24.51,15.738,68.514,68.514,0,0,0-40.264-40.229A67.879,67.879,0,0,0,117.318,213.51Zm671.976-37.728a78.774,78.774,0,0,1,0-20.835,78.966,78.966,0,0,1-20.854,0,78.755,78.755,0,0,1,0,20.835,78.984,78.984,0,0,1,20.854,0Zm-175.245,0a78.777,78.777,0,0,1,0-20.835,78.966,78.966,0,0,1-20.854,0,78.751,78.751,0,0,1,0,20.835,78.984,78.984,0,0,1,20.854,0Zm-175.245,0a78.777,78.777,0,0,1,0-20.835,78.966,78.966,0,0,1-20.853,0,78.757,78.757,0,0,1,0,20.835,78.984,78.984,0,0,1,20.854,0Zm-175.245,0a78.777,78.777,0,0,1,0-20.835,78.966,78.966,0,0,1-20.854,0,78.758,78.758,0,0,1,0,20.835,78.984,78.984,0,0,1,20.854,0Zm690.553-29.875A68.079,68.079,0,1,0,885.96,77.819,68.809,68.809,0,0,0,887.095,90.3a78,78,0,0,1,54.527,54.475A69,69,0,0,0,954.112,145.907Zm-175.245,0a69,69,0,0,0,12.491-1.134A77.99,77.99,0,0,1,845.881,90.3a68.812,68.812,0,0,0,1.135-12.48,68.151,68.151,0,0,0-136.3,0A68.8,68.8,0,0,0,711.85,90.3a78,78,0,0,1,54.527,54.475A69,69,0,0,0,778.867,145.907Zm-175.245,0a69,69,0,0,0,12.491-1.134A77.99,77.99,0,0,1,670.636,90.3a68.818,68.818,0,0,0,1.135-12.48,68.151,68.151,0,0,0-136.3,0A68.8,68.8,0,0,0,536.6,90.3a78,78,0,0,1,54.527,54.475A69,69,0,0,0,603.622,145.907Zm-175.245,0a68.994,68.994,0,0,0,12.491-1.134A77.99,77.99,0,0,1,495.391,90.3a68.812,68.812,0,0,0,1.135-12.48,68.151,68.151,0,0,0-136.3,0A68.8,68.8,0,0,0,361.36,90.3a78,78,0,0,1,54.527,54.475A69,69,0,0,0,428.377,145.907Zm-175.245,0a69,69,0,0,0,12.491-1.134A77.99,77.99,0,0,1,320.146,90.3a68.812,68.812,0,0,0,1.135-12.48,68.151,68.151,0,0,0-136.3,0A68.806,68.806,0,0,0,186.115,90.3a78,78,0,0,1,54.527,54.475A69,69,0,0,0,253.133,145.907ZM29.7,29.669A68.091,68.091,0,0,0,77.888,145.907a69,69,0,0,0,12.491-1.134A77.99,77.99,0,0,1,144.9,90.3a68.812,68.812,0,0,0,1.135-12.48A68.164,68.164,0,0,0,29.7,29.669Zm788.6,87.545a67.878,67.878,0,0,0-15.753,24.49,68.518,68.518,0,0,0,40.264-40.229A67.951,67.951,0,0,0,818.3,117.214Zm-175.245,0A67.879,67.879,0,0,0,627.3,141.7a68.518,68.518,0,0,0,40.264-40.229A67.952,67.952,0,0,0,643.053,117.214Zm-175.245,0a67.878,67.878,0,0,0-15.753,24.49,68.518,68.518,0,0,0,40.264-40.229A67.952,67.952,0,0,0,467.808,117.214Zm-175.245,0A67.879,67.879,0,0,0,276.81,141.7a68.518,68.518,0,0,0,40.264-40.229A67.952,67.952,0,0,0,292.563,117.214Zm-175.245,0a67.879,67.879,0,0,0-15.753,24.49,68.518,68.518,0,0,0,40.264-40.229A67.952,67.952,0,0,0,117.318,117.214Zm788.6,8.75A67.946,67.946,0,0,0,930.43,141.7a68.513,68.513,0,0,0-40.264-40.229A67.878,67.878,0,0,0,905.92,125.965Zm-175.245,0a67.947,67.947,0,0,0,24.51,15.738,68.513,68.513,0,0,0-40.264-40.229A67.879,67.879,0,0,0,730.675,125.965Zm-175.245,0A67.947,67.947,0,0,0,579.94,141.7a68.514,68.514,0,0,0-40.264-40.229A67.878,67.878,0,0,0,555.43,125.965Zm-175.245,0A67.947,67.947,0,0,0,404.7,141.7a68.513,68.513,0,0,0-40.264-40.229A67.879,67.879,0,0,0,380.185,125.965Zm-175.245,0A67.947,67.947,0,0,0,229.45,141.7a68.514,68.514,0,0,0-40.264-40.229A67.878,67.878,0,0,0,204.94,125.965Z" fill="#3d376b" opacity="0.06"/>
  </g>
</svg>
