<svg width="120" height="106" viewBox="0 0 120 106" fill="none" xmlns="http://www.w3.org/2000/svg">
<path d="M9.45813 92.6306V88.7291H10.4039C10.9951 88.7291 11.468 88.9065 11.7635 89.202C12.0591 89.4976 12.2365 90.0296 12.2365 90.6207C12.2365 90.9163 12.1773 91.2119 12.1182 91.4483C12.0591 91.6848 11.9409 91.9212 11.7635 92.0395C11.5862 92.1577 11.4089 92.335 11.1724 92.3941C10.936 92.4533 10.6995 92.5124 10.4039 92.5124L9.45813 92.6306ZM9.93104 92.2168H10.4039C10.8768 92.2168 11.2315 92.0986 11.4089 91.803C11.5862 91.5074 11.7635 91.1528 11.7635 90.6207C11.7635 90.1478 11.6453 89.734 11.4089 89.4976C11.1724 89.2611 10.8177 89.0838 10.4039 89.0838H9.93104V92.2168Z" fill="#1D1D1B"/>
<path d="M14.2463 92.7488C14.069 92.7488 13.8916 92.6897 13.7143 92.6306C13.537 92.5715 13.4187 92.4533 13.3005 92.335C13.1823 92.2168 13.064 92.0395 13.0049 91.8621C12.9458 91.6848 12.8867 91.4483 12.8867 91.2119C12.8867 90.9754 12.9458 90.739 13.0049 90.5616C13.064 90.3843 13.1823 90.2069 13.3005 90.0887C13.4187 89.9705 13.537 89.8523 13.7143 89.7932C13.8916 89.734 14.0099 89.6749 14.1872 89.6749C14.3645 89.6749 14.5419 89.6749 14.6601 89.7932C14.7783 89.8523 14.9557 89.9705 15.0148 90.0887C15.133 90.2069 15.1921 90.3252 15.2512 90.5025C15.3103 90.6799 15.3103 90.8572 15.3103 91.0345C15.3103 91.0936 15.3103 91.1528 15.3103 91.2119C15.3103 91.271 15.3103 91.3301 15.3103 91.3301H13.3596C13.3596 91.6257 13.4778 91.8621 13.6552 92.0395C13.8325 92.2168 14.069 92.335 14.3054 92.335C14.4237 92.335 14.601 92.335 14.6601 92.2759C14.7192 92.2168 14.8966 92.1577 15.0148 92.0986L15.1921 92.3941C15.0739 92.4533 14.8966 92.5124 14.7783 92.6306C14.6601 92.6897 14.4828 92.7488 14.2463 92.7488ZM13.3596 90.9754H14.8966C14.8966 90.6799 14.8374 90.4434 14.7192 90.3252C14.601 90.1478 14.4236 90.0887 14.1872 90.0887C14.069 90.0887 14.0099 90.0887 13.8916 90.1478C13.7734 90.2069 13.7143 90.2661 13.6552 90.3252C13.5961 90.3843 13.5369 90.5025 13.4778 90.6207C13.4187 90.6799 13.3596 90.8572 13.3596 90.9754Z" fill="#1D1D1B"/>
<path d="M16.9655 92.7488C16.67 92.7488 16.4335 92.6305 16.3153 92.4532C16.1971 92.2758 16.0788 91.9803 16.0788 91.6256V89.7931H16.5517V91.5665C16.5517 91.8621 16.6108 92.0394 16.67 92.1576C16.7291 92.2758 16.9064 92.335 17.0838 92.335C17.202 92.335 17.3793 92.2759 17.4975 92.2167C17.6158 92.1576 17.734 92.0394 17.8522 91.8621V89.7931H18.3251V92.6896H17.9113L17.8522 92.2167C17.734 92.3941 17.5567 92.5123 17.4384 92.5714C17.3202 92.6896 17.1429 92.7488 16.9655 92.7488Z" fill="#1D1D1B"/>
<path d="M20.2759 92.7488C20.0985 92.7488 19.9803 92.7488 19.8621 92.6897C19.7438 92.6306 19.6847 92.5715 19.6256 92.5123C19.5665 92.4532 19.5074 92.335 19.5074 92.2168C19.5074 92.0985 19.4483 91.9803 19.4483 91.803V90.2069H19.0345V89.8522H19.5074L19.5665 89.0247H19.9803V89.8522H20.6897V90.266H19.9212V91.8621C19.9212 92.0394 19.9803 92.1577 20.0394 92.2759C20.0985 92.3941 20.2168 92.3941 20.3941 92.3941C20.4532 92.3941 20.5123 92.3941 20.5714 92.3941C20.6305 92.3941 20.6897 92.335 20.7488 92.335L20.867 92.6897C20.8079 92.6897 20.6897 92.7488 20.6305 92.7488C20.5714 92.7488 20.335 92.7488 20.2759 92.7488Z" fill="#1D1D1B"/>
<path d="M22.2857 92.7487C22.0493 92.7487 21.8719 92.6896 21.6946 92.6305C21.5172 92.5714 21.3399 92.4532 21.2217 92.3349L21.4581 92.0394C21.5764 92.1576 21.6946 92.2167 21.8719 92.2758C21.9902 92.3349 22.1675 92.394 22.3448 92.394C22.5222 92.394 22.6995 92.3349 22.7586 92.2758C22.8177 92.2167 22.8769 92.0985 22.8769 91.9803C22.8769 91.9211 22.8769 91.862 22.8177 91.8029C22.7586 91.7438 22.7586 91.6847 22.6404 91.6847C22.5813 91.6256 22.5222 91.6256 22.4039 91.5665C22.2857 91.5073 22.2266 91.5073 22.1675 91.4482C22.0493 91.3891 21.931 91.3891 21.8719 91.33C21.7537 91.2709 21.6946 91.2118 21.5764 91.1527C21.4581 91.0936 21.4581 91.0344 21.399 90.9162C21.3399 90.8571 21.3399 90.7389 21.3399 90.6206C21.3399 90.5024 21.3399 90.3842 21.399 90.3251C21.4581 90.2069 21.5172 90.1477 21.5764 90.0886C21.6355 90.0295 21.7537 89.9704 21.8719 89.9113C21.9902 89.8522 22.1084 89.8522 22.2857 89.8522C22.4631 89.8522 22.6404 89.8522 22.8177 89.9704C22.9951 90.0295 23.1133 90.0886 23.2315 90.2069L22.9951 90.5024C22.8769 90.4433 22.8177 90.3842 22.6995 90.3251C22.5813 90.266 22.4631 90.266 22.3448 90.266C22.1675 90.266 22.0493 90.3251 21.931 90.3842C21.8719 90.4433 21.8128 90.5615 21.8128 90.6798C21.8128 90.7389 21.8128 90.798 21.8719 90.8571C21.931 90.9162 21.931 90.9753 21.9902 90.9753C22.0493 91.0344 22.1084 91.0344 22.2266 91.0936C22.2857 91.0936 22.4039 91.1527 22.4631 91.2118C22.5813 91.2709 22.6995 91.2709 22.7586 91.33C22.8769 91.3891 22.936 91.4482 23.0542 91.5073C23.1724 91.5665 23.2315 91.6256 23.2906 91.7438C23.3498 91.862 23.3498 91.9803 23.3498 92.0985C23.3498 92.2167 23.3498 92.3349 23.2906 92.4532C23.2315 92.5714 23.1724 92.6305 23.1133 92.7487C23.0542 92.8669 22.936 92.8669 22.7586 92.9261C22.5813 92.6896 22.4631 92.7487 22.2857 92.7487Z" fill="#1D1D1B"/>
<path d="M25.1823 92.7488C25.0049 92.7488 24.8276 92.6897 24.6502 92.6306C24.4729 92.5715 24.3547 92.4533 24.2365 92.335C24.1182 92.2168 24 92.0395 23.9409 91.8621C23.8818 91.6848 23.8227 91.4483 23.8227 91.2119C23.8227 90.9754 23.8818 90.739 23.9409 90.5616C24 90.3843 24.1182 90.2069 24.2365 90.0887C24.3547 89.9705 24.532 89.8523 24.7094 89.7932C24.8867 89.734 25.064 89.6749 25.2414 89.6749C25.4187 89.6749 25.5961 89.734 25.7143 89.7932C25.8325 89.8523 25.9507 89.9114 26.069 90.0296L25.8325 90.3252C25.7734 90.2661 25.6552 90.2069 25.5369 90.1478C25.4187 90.0887 25.3596 90.0887 25.2414 90.0887C25.1232 90.0887 25.0049 90.0887 24.8867 90.1478C24.7685 90.2069 24.6502 90.2661 24.5911 90.3843C24.532 90.5025 24.4729 90.6207 24.4138 90.739C24.3547 90.8572 24.3547 91.0345 24.3547 91.2119C24.3547 91.3892 24.3547 91.5074 24.4138 91.6848C24.4729 91.803 24.532 91.9212 24.5911 92.0395C24.6502 92.1577 24.7685 92.2168 24.8867 92.2759C25.0049 92.335 25.1232 92.335 25.2414 92.335C25.3596 92.335 25.4778 92.335 25.5961 92.2759C25.7143 92.2168 25.8325 92.1577 25.8916 92.0395L26.1281 92.335C26.0099 92.4533 25.8325 92.5715 25.7143 92.6306C25.4778 92.6897 25.3596 92.7488 25.1823 92.7488Z" fill="#1D1D1B"/>
<path d="M26.7783 92.6305V88.4335H27.2512V89.6157V90.2069C27.3695 90.0886 27.5468 89.9704 27.665 89.8522C27.7832 89.734 27.9606 89.734 28.197 89.734C28.4926 89.734 28.7291 89.8522 28.8473 90.0295C28.9655 90.2069 29.0837 90.5024 29.0837 90.8571V92.6896H28.6108V90.9162C28.6108 90.6207 28.5517 90.4433 28.4926 90.3251C28.4335 90.2069 28.2562 90.1478 28.0788 90.1478C27.9606 90.1478 27.7832 90.2069 27.665 90.266C27.5468 90.3251 27.4286 90.4433 27.2512 90.6207V92.6896L26.7783 92.6305Z" fill="#1D1D1B"/>
<path d="M31.2118 92.7488C31.0345 92.7488 30.8571 92.6897 30.6798 92.6306C30.5025 92.5715 30.3842 92.4533 30.266 92.335C30.1478 92.2168 30.0296 92.0395 29.9704 91.8621C29.9113 91.6848 29.8522 91.4483 29.8522 91.2119C29.8522 90.9754 29.9113 90.739 29.9704 90.5616C30.0296 90.3843 30.1478 90.2069 30.266 90.0887C30.3842 89.9705 30.5025 89.8523 30.6798 89.7932C30.8571 89.734 30.9754 89.6749 31.1527 89.6749C31.3301 89.6749 31.5074 89.6749 31.6256 89.7932C31.7438 89.8523 31.9212 89.9705 31.9803 90.0887C32.0985 90.2069 32.1576 90.3252 32.2168 90.5025C32.2759 90.6799 32.2759 90.8572 32.2759 91.0345C32.2759 91.0936 32.2759 91.1528 32.2759 91.2119C32.2759 91.271 32.2759 91.3301 32.2759 91.3301H30.3251C30.3251 91.6257 30.4434 91.8621 30.6207 92.0395C30.798 92.2168 31.0345 92.335 31.2709 92.335C31.3892 92.335 31.5665 92.335 31.6256 92.2759C31.6847 92.2168 31.8621 92.1577 31.9803 92.0986L32.1576 92.3941C32.0394 92.4533 31.8621 92.5124 31.7438 92.6306C31.5665 92.6897 31.3892 92.7488 31.2118 92.7488ZM30.266 90.9754H31.803C31.803 90.6799 31.7438 90.4434 31.6256 90.3252C31.5074 90.1478 31.3301 90.0887 31.0936 90.0887C30.9754 90.0887 30.9163 90.0887 30.798 90.1478C30.6798 90.2069 30.6207 90.2661 30.5616 90.3252C30.5025 90.3843 30.4434 90.5025 30.3842 90.6207C30.3251 90.6799 30.3251 90.8572 30.266 90.9754Z" fill="#1D1D1B"/>
<path d="M32.9852 92.6306V89.734H33.399L33.4581 90.2661C33.5764 90.0887 33.6946 89.9705 33.8128 89.8523C33.931 89.734 34.1084 89.6749 34.2857 89.6749C34.4039 89.6749 34.5222 89.6749 34.5813 89.734L34.4631 90.1478C34.4039 90.1478 34.4039 90.1478 34.3448 90.0887C34.2857 90.0296 34.2857 90.0887 34.2266 90.0887C34.1084 90.0887 33.9902 90.1478 33.8719 90.207C33.7537 90.3252 33.6355 90.5025 33.5173 90.739V92.5715L32.9852 92.6306Z" fill="#1D1D1B"/>
<path d="M35.8227 92.6306L37.1232 88.7291H37.6552L38.9557 92.6306H38.4236L38.069 91.4483H36.6502L36.2956 92.6306H35.8227ZM37.0049 90.4434L36.8276 91.0345H38.0099L37.8325 90.4434C37.7734 90.207 37.7143 90.0296 37.6552 89.7932C37.5961 89.5567 37.5369 89.3794 37.4778 89.1429C37.4187 89.3794 37.3596 89.6158 37.3005 89.7932C37.1232 90.0296 37.064 90.2661 37.0049 90.4434Z" fill="#1D1D1B"/>
<path d="M39.6059 92.6305V88.4335H40.0788V91.2709L41.3202 89.734H41.8522L40.9064 90.9162L42.0296 92.6305H41.4976L40.67 91.2118L40.1379 91.862V92.6305H39.6059Z" fill="#1D1D1B"/>
<path d="M43.2118 92.7488C42.9754 92.7488 42.7389 92.6897 42.6207 92.5123C42.5025 92.335 42.3842 92.1577 42.3842 91.9212C42.3842 91.6256 42.5025 91.3892 42.798 91.2118C43.0936 91.0345 43.5074 90.9163 44.1576 90.8572C44.1576 90.798 44.1576 90.6798 44.1576 90.5616C44.1576 90.5025 44.0985 90.3843 44.0394 90.3251C43.9803 90.266 43.9212 90.2069 43.8621 90.1478C43.803 90.0887 43.6847 90.0887 43.5665 90.0887C43.3892 90.0887 43.2709 90.0887 43.0936 90.2069C42.9754 90.266 42.798 90.3251 42.6798 90.4434L42.5025 90.0887C42.6207 90.0296 42.798 89.9113 42.9754 89.8522C43.1527 89.7931 43.3892 89.734 43.6256 89.734C43.9803 89.734 44.2168 89.8522 44.3941 90.0296C44.5714 90.266 44.6306 90.5616 44.6306 90.9163V92.6897H44.2168L44.1576 92.335C44.0394 92.4532 43.8621 92.5714 43.6847 92.6306C43.5074 92.6897 43.3892 92.7488 43.2118 92.7488ZM43.3301 92.335C43.4483 92.335 43.6256 92.335 43.7439 92.2168C43.8621 92.1577 43.9803 92.0394 44.1576 91.9212V91.0936C43.9212 91.0936 43.6847 91.1527 43.5665 91.2118C43.4483 91.271 43.2709 91.3301 43.1527 91.3892C43.0345 91.4483 42.9754 91.5074 42.9163 91.6256C42.8572 91.7439 42.8572 91.803 42.8572 91.8621C42.8572 92.0394 42.9163 92.1577 42.9754 92.2168C43.0345 92.2759 43.2118 92.335 43.3301 92.335Z" fill="#1D1D1B"/>
<path d="M46.5813 92.7488C46.2266 92.7488 45.931 92.6305 45.6946 92.335C45.4581 92.0394 45.399 91.6847 45.399 91.2118C45.399 90.9754 45.4581 90.7389 45.5172 90.5616C45.5764 90.3842 45.6946 90.2069 45.8128 90.0887C45.931 89.9704 46.0493 89.8522 46.2266 89.7931C46.4039 89.734 46.5222 89.6749 46.6995 89.6749C46.8768 89.6749 46.9951 89.6749 47.1133 89.734C47.2315 89.7931 47.3498 89.8522 47.468 89.9704V89.4975V88.3744H47.8818V92.5714H47.468L47.4089 92.2168C47.2906 92.335 47.1724 92.4532 46.9951 92.5123C46.8177 92.5714 46.6995 92.7488 46.5813 92.7488ZM46.6404 92.335C46.7586 92.335 46.8768 92.335 46.9951 92.2168C47.1133 92.0985 47.2315 92.0394 47.3498 91.9212V90.4434C47.2315 90.3251 47.1133 90.266 46.9951 90.2069C46.8768 90.1478 46.7586 90.1478 46.6404 90.1478C46.5222 90.1478 46.4039 90.1478 46.3448 90.2069C46.2266 90.266 46.1675 90.3251 46.0493 90.4434C45.931 90.5616 45.931 90.6798 45.8719 90.798C45.8128 90.9163 45.8128 91.0936 45.8128 91.2709C45.8128 91.6256 45.8719 91.8621 46.0493 92.0985C46.2266 92.2168 46.4039 92.335 46.6404 92.335Z" fill="#1D1D1B"/>
<path d="M50.069 92.7488C49.8916 92.7488 49.7143 92.6897 49.5369 92.6306C49.3596 92.5715 49.2414 92.4533 49.1231 92.335C49.0049 92.2168 48.8867 92.0395 48.8276 91.8621C48.7685 91.6848 48.7094 91.4483 48.7094 91.2119C48.7094 90.9754 48.7685 90.739 48.8276 90.5616C48.8867 90.3843 49.0049 90.2069 49.1231 90.0887C49.2414 89.9705 49.3596 89.8523 49.5369 89.7932C49.7143 89.734 49.8325 89.6749 50.0098 89.6749C50.1872 89.6749 50.3645 89.6749 50.4827 89.7932C50.601 89.8523 50.7783 89.9705 50.8374 90.0887C50.9557 90.2069 51.0148 90.3252 51.0739 90.5025C51.133 90.6799 51.133 90.8572 51.133 91.0345C51.133 91.0936 51.133 91.1528 51.133 91.2119C51.133 91.271 51.133 91.3301 51.133 91.3301H49.1823C49.1823 91.6257 49.3005 91.8621 49.4778 92.0395C49.6552 92.2168 49.8916 92.335 50.1281 92.335C50.2463 92.335 50.4236 92.335 50.4827 92.2759C50.5419 92.2168 50.7192 92.1577 50.8374 92.0986L51.0148 92.3941C50.8965 92.4533 50.7192 92.5124 50.601 92.6306C50.4236 92.6897 50.2463 92.7488 50.069 92.7488ZM49.1231 90.9754H50.6601C50.6601 90.6799 50.601 90.4434 50.4827 90.3252C50.3645 90.1478 50.1872 90.0887 49.9507 90.0887C49.8325 90.0887 49.7734 90.0887 49.6552 90.1478C49.5369 90.2069 49.4778 90.2661 49.4187 90.3252C49.3596 90.3843 49.3005 90.5025 49.2414 90.6207C49.1823 90.6799 49.1823 90.8572 49.1231 90.9754Z" fill="#1D1D1B"/>
<path d="M51.8424 92.6305V89.7339H52.2562L52.3153 90.1477C52.4335 90.0295 52.6108 89.9113 52.7291 89.7931C52.8473 89.6748 53.0246 89.6748 53.202 89.6748C53.4384 89.6748 53.6158 89.7339 53.734 89.7931C53.8522 89.8522 53.9705 90.0295 54.0296 90.2069C54.1478 90.0295 54.3251 89.9113 54.5025 89.7931C54.6798 89.6748 54.798 89.6157 54.9754 89.6157C55.2709 89.6157 55.5074 89.7339 55.6256 89.9113C55.7439 90.0886 55.8621 90.3842 55.8621 90.7389V92.5714H55.3892V90.798C55.3892 90.5024 55.3301 90.3251 55.2709 90.2069C55.2118 90.0886 55.0345 90.0295 54.8572 90.0295C54.6207 90.0295 54.3842 90.1477 54.1478 90.5024V92.5714H53.6749V90.798C53.6749 90.5024 53.6158 90.3251 53.5567 90.2069C53.4976 90.0886 53.3202 90.0295 53.1429 90.0295C52.9064 90.0295 52.67 90.1477 52.4335 90.5024V92.5714L51.8424 92.6305Z" fill="#1D1D1B"/>
<path d="M57.0443 89.202C56.9261 89.202 56.867 89.202 56.8079 89.1429C56.7488 89.0838 56.6897 89.0246 56.6897 88.9064C56.6897 88.7882 56.7488 88.7291 56.8079 88.67C56.867 88.6108 56.9261 88.6108 57.0443 88.6108C57.1626 88.6108 57.2217 88.6108 57.2808 88.67C57.3399 88.7291 57.399 88.7882 57.399 88.9064C57.399 88.9655 57.3399 89.0838 57.2808 89.1429C57.2217 89.1429 57.1626 89.202 57.0443 89.202ZM56.8079 92.6305V89.734H57.2808V92.6305H56.8079Z" fill="#1D1D1B"/>
<path d="M59.0542 92.7487C58.8177 92.7487 58.6404 92.6896 58.4631 92.6305C58.2857 92.5714 58.1084 92.4532 57.9901 92.3349L58.2266 92.0394C58.3448 92.1576 58.463 92.2167 58.6404 92.2758C58.7586 92.3349 58.936 92.394 59.1133 92.394C59.2906 92.394 59.468 92.3349 59.5271 92.2758C59.5862 92.2167 59.6453 92.0985 59.6453 91.9803C59.6453 91.9211 59.6453 91.862 59.5862 91.8029C59.5271 91.7438 59.5271 91.6847 59.4089 91.6847C59.3497 91.6256 59.2906 91.6256 59.1724 91.5665C59.0542 91.5073 58.9951 91.5073 58.936 91.4482C58.8177 91.3891 58.6995 91.3891 58.6404 91.33C58.5222 91.2709 58.463 91.2118 58.3448 91.1527C58.2266 91.0936 58.2266 91.0344 58.1675 90.9162C58.1084 90.8571 58.1084 90.7389 58.1084 90.6206C58.1084 90.5024 58.1084 90.3842 58.1675 90.3251C58.2266 90.2069 58.2857 90.1477 58.3448 90.0886C58.4039 90.0295 58.5222 89.9704 58.6404 89.9113C58.7586 89.8522 58.8768 89.8522 59.0542 89.8522C59.2315 89.8522 59.4089 89.8522 59.5862 89.9704C59.7635 90.0295 59.8818 90.0886 60 90.2069L59.7635 90.5024C59.6453 90.4433 59.5862 90.3842 59.468 90.3251C59.3497 90.266 59.2315 90.266 59.1133 90.266C58.936 90.266 58.8177 90.3251 58.6995 90.3842C58.6404 90.4433 58.5813 90.5615 58.5813 90.6798C58.5813 90.7389 58.5813 90.798 58.6404 90.8571C58.6995 90.9162 58.6995 90.9753 58.7586 90.9753C58.8177 91.0344 58.8768 91.0344 58.9951 91.0936C59.0542 91.0936 59.1724 91.1527 59.2315 91.2118C59.3497 91.2709 59.468 91.2709 59.5271 91.33C59.6453 91.3891 59.7044 91.4482 59.8227 91.5073C59.9409 91.5665 60 91.6256 60.0591 91.7438C60.1182 91.862 60.1182 91.9803 60.1182 92.0985C60.1182 92.2167 60.1182 92.3349 60.0591 92.4532C60 92.5714 59.9409 92.6305 59.8818 92.7487C59.8227 92.8669 59.7044 92.8669 59.5271 92.9261C59.3497 92.6896 59.2315 92.7487 59.0542 92.7487Z" fill="#1D1D1B"/>
<path d="M61.9507 92.7488C61.7734 92.7488 61.5961 92.6897 61.4187 92.6306C61.2414 92.5715 61.1231 92.4533 61.0049 92.335C60.8867 92.2168 60.7685 92.0395 60.7094 91.8621C60.6502 91.6848 60.5911 91.4483 60.5911 91.2119C60.5911 90.9754 60.6502 90.739 60.7094 90.5616C60.7685 90.3843 60.8867 90.2069 61.0049 90.0887C61.1231 89.9705 61.3005 89.8523 61.4778 89.7932C61.6552 89.734 61.8325 89.6749 62.0098 89.6749C62.1872 89.6749 62.3645 89.734 62.4827 89.7932C62.601 89.8523 62.7192 89.9114 62.8374 90.0296L62.601 90.3252C62.5419 90.2661 62.4236 90.2069 62.3054 90.1478C62.1872 90.0887 62.1281 90.0887 62.0098 90.0887C61.8916 90.0887 61.7734 90.0887 61.6552 90.1478C61.5369 90.2069 61.4187 90.2661 61.3596 90.3843C61.3005 90.5025 61.2414 90.6207 61.1823 90.739C61.1231 90.8572 61.1231 91.0345 61.1231 91.2119C61.1231 91.3892 61.1231 91.5074 61.1823 91.6848C61.2414 91.803 61.3005 91.9212 61.3596 92.0395C61.4187 92.1577 61.5369 92.2168 61.6552 92.2759C61.7734 92.335 61.8916 92.335 62.0098 92.335C62.1281 92.335 62.2463 92.335 62.3645 92.2759C62.4828 92.2168 62.601 92.1577 62.6601 92.0395L62.8965 92.335C62.7783 92.4533 62.601 92.5715 62.4827 92.6306C62.3054 92.6897 62.1281 92.7488 61.9507 92.7488Z" fill="#1D1D1B"/>
<path d="M63.5468 92.6305V88.4335H64.0197V89.6157V90.2069C64.1379 90.0886 64.3153 89.9704 64.4335 89.8522C64.5517 89.734 64.7291 89.734 64.9655 89.734C65.2611 89.734 65.4976 89.8522 65.6158 90.0295C65.734 90.2069 65.8522 90.5024 65.8522 90.8571V92.6896H65.3793V90.9162C65.3793 90.6207 65.3202 90.4433 65.2611 90.3251C65.202 90.2069 65.0246 90.1478 64.8473 90.1478C64.7291 90.1478 64.5517 90.2069 64.4335 90.266C64.3153 90.3251 64.1971 90.4433 64.0197 90.6207V92.6896L63.5468 92.6305Z" fill="#1D1D1B"/>
<path d="M67.9803 92.7488C67.803 92.7488 67.6256 92.6897 67.4483 92.6306C67.2709 92.5715 67.1527 92.4533 67.0345 92.335C66.9163 92.2168 66.798 92.0395 66.7389 91.8621C66.6798 91.6848 66.6207 91.4483 66.6207 91.2119C66.6207 90.9754 66.6798 90.739 66.7389 90.5616C66.798 90.3843 66.9163 90.2069 67.0345 90.0887C67.1527 89.9705 67.2709 89.8523 67.4483 89.7932C67.6256 89.734 67.7439 89.6749 67.9212 89.6749C68.0985 89.6749 68.2759 89.6749 68.3941 89.7932C68.5123 89.8523 68.6897 89.9705 68.7488 90.0887C68.867 90.2069 68.9261 90.3252 68.9852 90.5025C69.0443 90.6799 69.0443 90.8572 69.0443 91.0345C69.0443 91.0936 69.0443 91.1528 69.0443 91.2119C69.0443 91.271 69.0443 91.3301 69.0443 91.3301H67.0936C67.0936 91.6257 67.2118 91.8621 67.3892 92.0395C67.5665 92.2168 67.803 92.335 68.0394 92.335C68.1576 92.335 68.335 92.335 68.3941 92.2759C68.4532 92.2168 68.6306 92.1577 68.7488 92.0986L68.9261 92.3941C68.8079 92.4533 68.6306 92.5124 68.5123 92.6306C68.335 92.6897 68.1576 92.7488 67.9803 92.7488ZM67.0936 90.9754H68.6306C68.6306 90.6799 68.5714 90.4434 68.4532 90.3252C68.335 90.1478 68.1576 90.0887 67.9212 90.0887C67.803 90.0887 67.7439 90.0887 67.6256 90.1478C67.5074 90.2069 67.4483 90.2661 67.3892 90.3252C67.3301 90.3843 67.2709 90.5025 67.2118 90.6207C67.0936 90.6799 67.0936 90.8572 67.0936 90.9754Z" fill="#1D1D1B"/>
<path d="M69.7537 92.6306V89.734H70.1675L70.2266 90.2661C70.3448 90.0887 70.4631 89.9705 70.5813 89.8523C70.6995 89.734 70.8768 89.6749 71.0542 89.6749C71.1724 89.6749 71.2906 89.6749 71.3497 89.734L71.2315 90.1478C71.1724 90.1478 71.1724 90.1478 71.1133 90.0887C71.0542 90.0296 71.0542 90.0887 70.9951 90.0887C70.8768 90.0887 70.7586 90.1478 70.6404 90.207C70.5222 90.3252 70.4039 90.5025 70.2857 90.739V92.5715L69.7537 92.6306Z" fill="#1D1D1B"/>
<path d="M72.5911 92.6306L73.8916 88.7291H74.4236L75.7241 92.6306H75.1921L74.8374 91.4483H73.4187L73.064 92.6306H72.5911ZM73.7734 90.4434L73.596 91.0345H74.7783L74.601 90.4434C74.5419 90.207 74.4828 90.0296 74.4236 89.7932C74.3645 89.5567 74.3054 89.3794 74.2463 89.1429C74.1872 89.3794 74.1281 89.6158 74.069 89.7932C74.0098 89.9705 73.8916 90.2661 73.7734 90.4434Z" fill="#1D1D1B"/>
<path d="M77.1429 92.7488C76.8473 92.7488 76.6108 92.6305 76.4926 92.4532C76.3744 92.2758 76.2562 91.9803 76.2562 91.6256V89.7931H76.7291V91.5665C76.7291 91.8621 76.7882 92.0394 76.8473 92.1576C76.9064 92.2758 77.0837 92.335 77.2611 92.335C77.3793 92.335 77.5567 92.2759 77.6749 92.2167C77.7931 92.1576 77.9113 92.0394 78.0296 91.8621V89.7931H78.5025V92.6896H78.0887L78.0296 92.2167C77.9113 92.3941 77.734 92.5123 77.6158 92.5714C77.4975 92.6896 77.3793 92.7488 77.1429 92.7488Z" fill="#1D1D1B"/>
<path d="M80.2759 92.7487C80.0394 92.7487 79.8621 92.6896 79.6847 92.6305C79.5074 92.5714 79.33 92.4532 79.2118 92.3349L79.4483 92.0394C79.5665 92.1576 79.6847 92.2167 79.8621 92.2758C79.9803 92.3349 80.1576 92.394 80.335 92.394C80.5123 92.394 80.6897 92.3349 80.7488 92.2758C80.8079 92.2167 80.867 92.0985 80.867 91.9803C80.867 91.9211 80.867 91.862 80.8079 91.8029C80.7488 91.7438 80.7488 91.6847 80.6305 91.6847C80.5123 91.6847 80.5123 91.6256 80.3941 91.5665C80.2759 91.5073 80.2168 91.5073 80.1576 91.4482C80.0394 91.3891 79.9212 91.3891 79.8621 91.33C79.7438 91.2709 79.6847 91.2118 79.5665 91.1527C79.4483 91.0936 79.4483 91.0344 79.3892 90.9162C79.3301 90.8571 79.33 90.7389 79.33 90.6206C79.33 90.5024 79.3301 90.3842 79.3892 90.3251C79.4483 90.2069 79.5074 90.1477 79.5665 90.0886C79.6256 90.0295 79.7438 89.9704 79.8621 89.9113C79.9803 89.8522 80.0985 89.8522 80.2759 89.8522C80.4532 89.8522 80.6305 89.8522 80.8079 89.9704C80.9852 90.0295 81.1034 90.0886 81.2217 90.2069L80.9852 90.5024C80.867 90.4433 80.8079 90.3842 80.6897 90.3251C80.5714 90.266 80.4532 90.266 80.335 90.266C80.1576 90.266 80.0394 90.3251 79.9212 90.3842C79.803 90.4433 79.803 90.5615 79.803 90.6798C79.803 90.7389 79.803 90.798 79.8621 90.8571C79.9212 90.9162 79.9212 90.9753 79.9803 90.9753C80.0394 90.9753 80.0985 91.0344 80.2167 91.0936C80.2759 91.0936 80.3941 91.1527 80.4532 91.2118C80.5714 91.2709 80.6897 91.2709 80.7488 91.33C80.867 91.3891 80.9261 91.4482 81.0443 91.5073C81.1626 91.5665 81.2217 91.6256 81.2808 91.7438C81.3399 91.862 81.3399 91.9803 81.3399 92.0985C81.3399 92.2167 81.3399 92.3349 81.2808 92.4532C81.2217 92.5714 81.1626 92.6305 81.1034 92.7487C81.0443 92.8669 80.9261 92.8669 80.7488 92.9261C80.6305 92.6896 80.4532 92.7487 80.2759 92.7487Z" fill="#1D1D1B"/>
<path d="M82.9951 92.7488C82.8177 92.7488 82.6995 92.7488 82.5813 92.6897C82.463 92.6306 82.4039 92.5715 82.3448 92.5123C82.2857 92.4532 82.2266 92.335 82.2266 92.2168C82.2266 92.0985 82.1675 91.9803 82.1675 91.803V90.2069H81.7537V89.8522H82.2266L82.2857 89.0247H82.6995V89.8522H83.468V90.266H82.6995V91.8621C82.6995 92.0394 82.7586 92.1577 82.8177 92.2759C82.8768 92.3941 82.9951 92.3941 83.1724 92.3941C83.2315 92.3941 83.2906 92.3941 83.3497 92.3941C83.4089 92.3941 83.468 92.335 83.5271 92.335L83.6453 92.6897C83.5862 92.6897 83.468 92.7488 83.4089 92.7488C83.3498 92.7488 83.0542 92.7488 82.9951 92.7488Z" fill="#1D1D1B"/>
<path d="M84.8276 92.7488C84.5911 92.7488 84.3547 92.6897 84.2364 92.5123C84.1182 92.335 84 92.1577 84 91.9212C84 91.6256 84.1182 91.3892 84.4138 91.2118C84.7094 91.0345 85.1232 90.9163 85.7734 90.8572C85.7734 90.798 85.7734 90.6798 85.7734 90.5616C85.7734 90.5025 85.7143 90.3843 85.6552 90.3251C85.5961 90.266 85.5369 90.2069 85.4778 90.1478C85.4187 90.0887 85.3005 90.0887 85.1823 90.0887C85.0049 90.0887 84.8867 90.0887 84.7094 90.2069C84.5911 90.266 84.4138 90.3251 84.2956 90.4434L84.1182 90.0887C84.2365 90.0296 84.4138 89.9113 84.5911 89.8522C84.7685 89.7931 85.0049 89.734 85.2414 89.734C85.5961 89.734 85.8325 89.8522 86.0098 90.0296C86.1872 90.266 86.2463 90.5616 86.2463 90.9163V92.6897H85.8325L85.7734 92.335C85.6552 92.4532 85.4778 92.5714 85.3005 92.6306C85.1232 92.6897 85.0049 92.7488 84.8276 92.7488ZM84.9458 92.335C85.064 92.335 85.2414 92.335 85.3596 92.2168C85.4778 92.1577 85.5961 92.0394 85.7734 91.9212V91.0936C85.5369 91.0936 85.3005 91.1527 85.1823 91.2118C85.064 91.271 84.8867 91.3301 84.7685 91.3892C84.6502 91.4483 84.5911 91.5074 84.532 91.6256C84.4729 91.7439 84.4729 91.803 84.4729 91.8621C84.4729 92.0394 84.532 92.1577 84.5911 92.2168C84.7094 92.2759 84.8276 92.335 84.9458 92.335Z" fill="#1D1D1B"/>
<path d="M87.9606 92.7488C87.665 92.7488 87.4286 92.6305 87.3104 92.4532C87.1921 92.2758 87.0739 91.9803 87.0739 91.6256V89.7931H87.5468V91.5665C87.5468 91.8621 87.6059 92.0394 87.665 92.1576C87.7242 92.2758 87.9015 92.335 88.0788 92.335C88.1971 92.335 88.3744 92.2759 88.4926 92.2167C88.6109 92.1576 88.7291 92.0394 88.8473 91.8621V89.7931H89.3202V92.6896H88.9064L88.8473 92.2167C88.7291 92.3941 88.5517 92.5123 88.4335 92.5714C88.3744 92.6896 88.1971 92.7488 87.9606 92.7488Z" fill="#1D1D1B"/>
<path d="M91.1527 92.7487C90.9163 92.7487 90.7389 92.6896 90.5616 92.6305C90.3843 92.5714 90.2069 92.4532 90.0887 92.3349L90.3251 92.0394C90.4434 92.1576 90.5616 92.2167 90.7389 92.2758C90.8572 92.3349 91.0345 92.394 91.2118 92.394C91.3892 92.394 91.5665 92.3349 91.6256 92.2758C91.6847 92.2167 91.7439 92.0985 91.7439 91.9803C91.7439 91.9211 91.7439 91.862 91.6848 91.8029C91.6256 91.7438 91.6256 91.6847 91.5074 91.6847C91.3892 91.6847 91.3892 91.6256 91.271 91.5665C91.1527 91.5073 91.0936 91.5073 91.0345 91.4482C90.9163 91.3891 90.798 91.3891 90.7389 91.33C90.6207 91.2709 90.5616 91.2118 90.4434 91.1527C90.3251 91.0936 90.3251 91.0344 90.266 90.9162C90.2069 90.8571 90.2069 90.7389 90.2069 90.6206C90.2069 90.5024 90.2069 90.3842 90.266 90.3251C90.3251 90.2069 90.3843 90.1477 90.4434 90.0886C90.5025 90.0295 90.6207 89.9704 90.7389 89.9113C90.8572 89.8522 90.9754 89.8522 91.1527 89.8522C91.3301 89.8522 91.5074 89.8522 91.6848 89.9704C91.8621 90.0295 91.9803 90.0886 92.0985 90.2069L91.8621 90.5024C91.7439 90.4433 91.6847 90.3842 91.5665 90.3251C91.4483 90.266 91.3301 90.266 91.2118 90.266C91.0345 90.266 90.9163 90.3251 90.7981 90.3842C90.6798 90.4433 90.6798 90.5615 90.6798 90.6798C90.6798 90.7389 90.6798 90.798 90.7389 90.8571C90.798 90.9162 90.798 90.9753 90.8572 90.9753C90.9163 90.9753 90.9754 91.0344 91.0936 91.0936C91.1527 91.0936 91.271 91.1527 91.3301 91.2118C91.4483 91.2709 91.5665 91.2709 91.6256 91.33C91.7439 91.3891 91.803 91.4482 91.9212 91.5073C92.0394 91.5665 92.0985 91.6256 92.1576 91.7438C92.2168 91.862 92.2168 91.9803 92.2168 92.0985C92.2168 92.2167 92.2168 92.3349 92.1576 92.4532C92.0985 92.5714 92.0394 92.6305 91.9803 92.7487C91.9212 92.8669 91.803 92.8669 91.6256 92.9261C91.4483 92.6896 91.3301 92.7487 91.1527 92.7487Z" fill="#1D1D1B"/>
<path d="M94.0493 92.7488C93.8719 92.7488 93.6946 92.6897 93.5172 92.6306C93.3399 92.5715 93.2217 92.4533 93.1035 92.335C92.9852 92.2168 92.867 92.0395 92.8079 91.8621C92.7488 91.6848 92.6897 91.4483 92.6897 91.2119C92.6897 90.9754 92.7488 90.739 92.8079 90.5616C92.867 90.3843 92.9852 90.2069 93.1035 90.0887C93.2217 89.9705 93.399 89.8523 93.5764 89.7932C93.7537 89.734 93.931 89.6749 94.1084 89.6749C94.2857 89.6749 94.4631 89.734 94.5813 89.7932C94.6995 89.8523 94.8177 89.9114 94.936 90.0296L94.6995 90.3252C94.6404 90.2661 94.5222 90.2069 94.4039 90.1478C94.2857 90.0887 94.2266 90.0887 94.1084 90.0887C93.9902 90.0887 93.8719 90.0887 93.7537 90.1478C93.6355 90.2069 93.5173 90.2661 93.4581 90.3843C93.399 90.5025 93.3399 90.6207 93.2808 90.739C93.2217 90.8572 93.2217 91.0345 93.2217 91.2119C93.2217 91.3892 93.2217 91.5074 93.2808 91.6848C93.3399 91.803 93.399 91.9212 93.4581 92.0395C93.5173 92.1577 93.6355 92.2168 93.7537 92.2759C93.8719 92.335 93.9902 92.335 94.1084 92.335C94.2266 92.335 94.3448 92.335 94.4631 92.2759C94.5813 92.2168 94.6995 92.1577 94.7586 92.0395L94.9951 92.335C94.8769 92.4533 94.6995 92.5715 94.5813 92.6306C94.404 92.6897 94.2266 92.7488 94.0493 92.7488Z" fill="#1D1D1B"/>
<path d="M95.6453 92.6305V88.4335H96.1182V89.6157V90.2069C96.2365 90.0886 96.4138 89.9704 96.532 89.8522C96.6503 89.734 96.8276 89.734 97.064 89.734C97.3596 89.734 97.5961 89.8522 97.7143 90.0295C97.8325 90.2069 97.9507 90.5024 97.9507 90.8571V92.6896H97.4778V90.9162C97.4778 90.6207 97.4187 90.4433 97.3596 90.3251C97.3005 90.2069 97.1232 90.1478 96.9458 90.1478C96.8276 90.1478 96.6503 90.2069 96.532 90.266C96.4138 90.3251 96.2956 90.4433 96.1182 90.6207V92.6896L95.6453 92.6305Z" fill="#1D1D1B"/>
<path d="M99.9015 92.7488C99.5468 92.7488 99.2512 92.6305 99.0148 92.335C98.7783 92.0985 98.7192 91.6847 98.7192 91.2118C98.7192 90.9754 98.7783 90.7389 98.8374 90.5616C98.8965 90.3842 99.0148 90.2069 99.133 90.0887C99.2512 89.9704 99.3695 89.8522 99.5468 89.7931C99.7241 89.734 99.8424 89.6749 100.02 89.6749C100.197 89.6749 100.315 89.6749 100.433 89.734C100.552 89.7931 100.67 89.8522 100.788 89.9704V89.4975V88.3744H101.261V92.5714H100.847L100.788 92.2168C100.67 92.335 100.552 92.4532 100.374 92.5123C100.197 92.5714 100.02 92.7488 99.9015 92.7488ZM99.9606 92.335C100.079 92.335 100.197 92.335 100.315 92.2168C100.433 92.1576 100.552 92.0394 100.67 91.9212V90.4434C100.552 90.3251 100.433 90.266 100.315 90.2069C100.197 90.1478 100.079 90.1478 99.9606 90.1478C99.8424 90.1478 99.7241 90.1478 99.665 90.2069C99.5468 90.266 99.4877 90.3251 99.3695 90.4434C99.2512 90.5616 99.2512 90.6798 99.1921 90.798C99.133 90.9163 99.133 91.0936 99.133 91.2709C99.133 91.6256 99.1921 91.8621 99.3695 92.0985C99.5468 92.335 99.7241 92.335 99.9606 92.335Z" fill="#1D1D1B"/>
<path d="M102.443 89.202C102.325 89.202 102.266 89.202 102.207 89.1429C102.148 89.0838 102.089 89.0246 102.089 88.9064C102.089 88.7882 102.089 88.7291 102.207 88.67C102.266 88.6108 102.325 88.6108 102.443 88.6108C102.562 88.6108 102.621 88.6108 102.68 88.67C102.739 88.7291 102.798 88.7882 102.798 88.9064C102.798 88.9655 102.798 89.0838 102.68 89.1429C102.621 89.1429 102.562 89.202 102.443 89.202ZM102.207 92.6305V89.734H102.68V92.6305H102.207Z" fill="#1D1D1B"/>
<path d="M104.867 92.7488C104.69 92.7488 104.512 92.6897 104.335 92.6306C104.158 92.5715 104.039 92.4533 103.921 92.335C103.803 92.2168 103.685 92.0395 103.626 91.8621C103.566 91.6848 103.507 91.4483 103.507 91.2119C103.507 90.9754 103.566 90.739 103.626 90.5616C103.685 90.3843 103.803 90.2069 103.921 90.0887C104.039 89.9705 104.158 89.8523 104.335 89.7932C104.512 89.734 104.631 89.6749 104.808 89.6749C104.985 89.6749 105.163 89.6749 105.281 89.7932C105.399 89.8523 105.576 89.9705 105.635 90.0887C105.754 90.2069 105.813 90.3252 105.872 90.5025C105.931 90.6799 105.931 90.8572 105.931 91.0345C105.931 91.0936 105.931 91.1528 105.931 91.2119C105.931 91.271 105.931 91.3301 105.931 91.3301H103.98C103.98 91.6257 104.099 91.8621 104.276 92.0395C104.453 92.2168 104.69 92.335 104.926 92.335C105.044 92.335 105.222 92.335 105.281 92.2759C105.34 92.2168 105.517 92.1577 105.635 92.0986L105.813 92.3941C105.695 92.4533 105.517 92.5124 105.399 92.6306C105.222 92.6897 105.044 92.7488 104.867 92.7488ZM103.98 90.9754H105.517C105.517 90.6799 105.458 90.4434 105.34 90.3252C105.222 90.207 105.044 90.0887 104.808 90.0887C104.69 90.0887 104.631 90.0887 104.512 90.1478C104.394 90.2069 104.335 90.2661 104.276 90.3252C104.217 90.3843 104.158 90.5025 104.099 90.6207C104.039 90.6799 103.98 90.8572 103.98 90.9754Z" fill="#1D1D1B"/>
<path d="M106.7 92.6306V89.734H107.113L107.172 90.1478C107.291 90.0296 107.468 89.9114 107.586 89.7932C107.764 89.6749 107.941 89.6749 108.118 89.6749C108.414 89.6749 108.65 89.7932 108.768 89.9705C108.887 90.1478 109.005 90.4434 109.005 90.7981V92.6306H108.532V90.8572C108.532 90.5616 108.473 90.3843 108.414 90.2661C108.355 90.1478 108.177 90.0887 108 90.0887C107.882 90.0887 107.704 90.1478 107.586 90.207C107.468 90.2661 107.35 90.3843 107.172 90.5616V92.6306H106.7Z" fill="#1D1D1B"/>
<path d="M110.66 92.7487C110.424 92.7487 110.246 92.6896 110.069 92.6305C109.892 92.5714 109.714 92.4532 109.596 92.3349L109.833 92.0394C109.951 92.1576 110.069 92.2167 110.246 92.2758C110.365 92.3349 110.542 92.394 110.719 92.394C110.897 92.394 111.074 92.3349 111.133 92.2758C111.192 92.2167 111.251 92.0985 111.251 91.9803C111.251 91.9211 111.251 91.862 111.192 91.8029C111.133 91.7438 111.133 91.6847 111.015 91.6847C110.956 91.6256 110.897 91.6256 110.778 91.5665C110.66 91.5073 110.601 91.5073 110.542 91.4482C110.424 91.3891 110.305 91.3891 110.246 91.33C110.128 91.2709 110.069 91.2118 109.951 91.1527C109.833 91.0936 109.833 91.0344 109.773 90.9162C109.714 90.8571 109.714 90.7389 109.714 90.6206C109.714 90.5024 109.714 90.3842 109.773 90.3251C109.833 90.2069 109.892 90.1477 109.951 90.0886C110.01 90.0295 110.128 89.9704 110.246 89.9113C110.365 89.8522 110.483 89.8522 110.66 89.8522C110.837 89.8522 111.015 89.8522 111.192 89.9704C111.369 90.0295 111.488 90.0886 111.606 90.2069L111.369 90.5024C111.251 90.4433 111.192 90.3842 111.074 90.3251C110.956 90.266 110.837 90.266 110.719 90.266C110.542 90.266 110.424 90.3251 110.305 90.3842C110.246 90.4433 110.187 90.5615 110.187 90.6798C110.187 90.7389 110.187 90.798 110.246 90.8571C110.305 90.9162 110.305 90.9753 110.365 90.9753C110.424 91.0344 110.483 91.0344 110.601 91.0936C110.66 91.0936 110.778 91.1527 110.837 91.2118C110.956 91.2709 111.074 91.2709 111.133 91.33C111.251 91.3891 111.31 91.4482 111.429 91.5073C111.547 91.5665 111.606 91.6256 111.665 91.7438C111.724 91.862 111.724 91.9803 111.724 92.0985C111.724 92.2167 111.724 92.3349 111.665 92.4532C111.606 92.5714 111.547 92.6305 111.488 92.7487C111.429 92.8669 111.31 92.8669 111.133 92.9261C110.956 92.6896 110.837 92.7487 110.66 92.7487Z" fill="#1D1D1B"/>
<path d="M113.32 92.7488C113.143 92.7488 113.025 92.7488 112.906 92.6897C112.788 92.6306 112.729 92.5715 112.67 92.5123C112.611 92.4532 112.552 92.335 112.552 92.2168C112.552 92.0985 112.493 91.9803 112.493 91.803V90.2069H112.079V89.8522H112.552L112.611 89.0247H113.025V89.8522H113.793V90.266H113.025V91.8621C113.025 92.0394 113.025 92.1577 113.143 92.2759C113.261 92.3941 113.32 92.3941 113.498 92.3941C113.557 92.3941 113.616 92.3941 113.675 92.3941C113.734 92.3941 113.793 92.335 113.852 92.335L113.97 92.6897C113.911 92.6897 113.793 92.7488 113.734 92.7488C113.675 92.7488 113.438 92.7488 113.32 92.7488Z" fill="#1D1D1B"/>
<path d="M18.266 99.7833C18.0296 99.7833 17.7931 99.7241 17.5567 99.665C17.3202 99.6059 17.1429 99.4286 17.0246 99.2512C16.9064 99.0739 16.7291 98.8966 16.67 98.601C16.6108 98.3645 16.5517 98.069 16.5517 97.7734C16.5517 97.4778 16.6108 97.1823 16.67 96.9458C16.7291 96.7094 16.9064 96.4729 17.0246 96.2956C17.202 96.1182 17.3793 96 17.6158 95.8818C17.8522 95.7635 18.0887 95.7635 18.3251 95.7635C18.4434 95.7635 18.5616 95.7636 18.6798 95.8227C18.798 95.8227 18.9163 95.8818 18.9754 95.9409C19.0936 96 19.1527 96.0591 19.2118 96.1182C19.2709 96.1773 19.3301 96.2365 19.3892 96.2956L19.0936 96.5911C18.9754 96.4729 18.8571 96.4138 18.7389 96.3547C18.6207 96.2956 18.4434 96.2365 18.266 96.2365C18.0887 96.2365 17.9113 96.2956 17.734 96.3547C17.5567 96.4138 17.4384 96.532 17.3202 96.6502C17.202 96.7685 17.1429 96.9458 17.0837 97.1232C17.0246 97.3005 16.9655 97.5369 16.9655 97.7734C16.9655 98.0099 16.9655 98.2463 17.0246 98.4236C17.0837 98.601 17.1429 98.7783 17.2611 98.9557C17.3793 99.133 17.4975 99.1921 17.6749 99.2512C17.8522 99.3103 18.0296 99.3695 18.2069 99.3695C18.3251 99.3695 18.5025 99.3695 18.6207 99.3103C18.7389 99.2512 18.8571 99.1921 18.9163 99.133V98.1281H18.0887V97.7143H19.5074V99.3695C19.3892 99.4877 19.2118 99.6059 19.0345 99.665C18.798 99.7241 18.5616 99.7833 18.266 99.7833Z" fill="#1D1D1B"/>
<path d="M21.5764 99.7832C21.399 99.7832 21.2217 99.7241 21.0443 99.665C20.867 99.6059 20.7488 99.4877 20.6305 99.3694C20.5123 99.2512 20.3941 99.0739 20.335 98.8965C20.2759 98.7192 20.2168 98.4827 20.2168 98.2463C20.2168 98.0098 20.2759 97.7734 20.335 97.5961C20.3941 97.4187 20.5123 97.2414 20.6305 97.1231C20.7488 97.0049 20.867 96.8867 21.0443 96.8276C21.2217 96.7685 21.3399 96.7094 21.5172 96.7094C21.6946 96.7094 21.8719 96.7093 21.9902 96.8276C22.1084 96.8867 22.2857 97.0049 22.3448 97.1231C22.4631 97.2414 22.5222 97.3596 22.5813 97.5369C22.6404 97.7143 22.6404 97.8916 22.6404 98.0689C22.6404 98.1281 22.6404 98.1872 22.6404 98.2463C22.6404 98.3054 22.6404 98.3645 22.6404 98.3645H20.6897C20.6897 98.6601 20.8079 98.8965 20.9852 99.0739C21.1626 99.2512 21.399 99.3694 21.6355 99.3694C21.7537 99.3694 21.931 99.3694 21.9902 99.3103C22.0493 99.2512 22.2266 99.1921 22.3448 99.133L22.5222 99.4286C22.4039 99.4877 22.2266 99.5468 22.1084 99.665C21.9902 99.7832 21.7537 99.7832 21.5764 99.7832ZM20.6305 98.0689H22.1675C22.1675 97.7734 22.1084 97.5369 21.9902 97.4187C21.8719 97.2414 21.6946 97.1822 21.4581 97.1822C21.3399 97.1822 21.2808 97.1823 21.1626 97.2414C21.0443 97.3005 20.9852 97.3596 20.9261 97.4187C20.867 97.4778 20.8079 97.596 20.7488 97.7143C20.6897 97.8325 20.6897 97.8916 20.6305 98.0689Z" fill="#1D1D1B"/>
<path d="M23.3498 99.7241V96.8275H23.7636L23.8227 97.3596C23.9409 97.1822 24.0591 97.064 24.1773 96.9458C24.2956 96.8275 24.4729 96.7684 24.6503 96.7684C24.7685 96.7684 24.8867 96.7684 24.9458 96.8275L24.8276 97.2413C24.7685 97.2413 24.7685 97.2413 24.7094 97.1822C24.6503 97.1231 24.6503 97.1822 24.5911 97.1822C24.4729 97.1822 24.3547 97.2413 24.2365 97.3005C24.1182 97.3596 24 97.596 23.8818 97.8325V99.665L23.3498 99.7241Z" fill="#1D1D1B"/>
<path d="M25.4778 99.7241V96.8276H25.8916L25.9507 97.2414C26.069 97.1231 26.2463 97.0049 26.3645 96.8867C26.4828 96.7685 26.6601 96.7685 26.8374 96.7685C27.0739 96.7685 27.2512 96.8276 27.3695 96.8867C27.4877 97.0049 27.6059 97.1231 27.665 97.3005C27.7832 97.1231 27.9606 97.0049 28.1379 96.8867C28.3153 96.7685 28.4335 96.7094 28.6108 96.7094C28.9064 96.7094 29.1429 96.8276 29.2611 97.0049C29.3793 97.1823 29.4975 97.4778 29.4975 97.8325V99.665H28.9655V97.8916C28.9655 97.5961 28.9064 97.4187 28.8473 97.3005C28.7882 97.1823 28.6108 97.1231 28.4335 97.1231C28.197 97.1231 27.9606 97.2414 27.7241 97.5961V99.665H27.2512V97.8916C27.2512 97.5961 27.1921 97.4187 27.133 97.3005C27.0739 97.1823 26.8965 97.1231 26.7192 97.1231C26.4828 97.1231 26.2463 97.2414 26.0098 97.5961V99.665L25.4778 99.7241Z" fill="#1D1D1B"/>
<path d="M31.0936 99.7832C30.8571 99.7832 30.6207 99.7241 30.5025 99.5468C30.3842 99.3694 30.266 99.1921 30.266 98.9556C30.266 98.6601 30.3842 98.3645 30.6798 98.2463C30.9754 98.128 31.3892 97.9507 32.0394 97.8916C32.0394 97.8325 32.0394 97.7143 32.0394 97.596C32.0394 97.5369 31.9803 97.4187 31.9212 97.3596C31.8621 97.3005 31.803 97.2413 31.7438 97.1822C31.6847 97.1231 31.5665 97.1231 31.4483 97.1231C31.2709 97.1231 31.1527 97.1231 30.9754 97.2413C30.798 97.3596 30.6798 97.3596 30.5616 97.4778L30.3842 97.1231C30.5025 97.064 30.6798 96.9458 30.8571 96.8867C31.0345 96.8275 31.2709 96.7684 31.5074 96.7684C31.8621 96.7684 32.0985 96.8867 32.2759 97.064C32.4532 97.3005 32.5123 97.596 32.5123 97.9507V99.7241H32.0985L32.0394 99.3694C31.9212 99.4876 31.7438 99.6059 31.5665 99.665C31.4483 99.7241 31.2709 99.7832 31.0936 99.7832ZM31.2118 99.3694C31.33 99.3694 31.5074 99.3103 31.6256 99.2512C31.7438 99.1921 31.8621 99.0738 32.0394 98.9556V98.128C31.803 98.128 31.5665 98.1872 31.4483 98.2463C31.33 98.3054 31.1527 98.3645 31.0345 98.4236C30.9163 98.4827 30.8571 98.5418 30.798 98.6601C30.7389 98.7783 30.7389 98.8374 30.7389 98.8965C30.7389 99.0739 30.798 99.1921 30.8571 99.2512C30.9754 99.3694 31.0936 99.3694 31.2118 99.3694Z" fill="#1D1D1B"/>
<path d="M33.4581 99.7241V96.8275H33.8719L33.931 97.2413C34.0493 97.1231 34.2266 97.0049 34.3448 96.8867C34.5222 96.7684 34.6995 96.7684 34.8769 96.7684C35.1724 96.7684 35.4089 96.8867 35.5271 97.064C35.6453 97.2413 35.7635 97.5369 35.7635 97.8916V99.7241H35.2906V97.9507C35.2906 97.6551 35.2315 97.4778 35.1724 97.3596C35.1133 97.2413 34.936 97.1822 34.7586 97.1822C34.6404 97.1822 34.4631 97.2413 34.3448 97.3005C34.2266 97.3596 34.1084 97.4778 33.931 97.6551V99.7241H33.4581Z" fill="#1D1D1B"/>
<path d="M37.4778 99.7241L38.7783 95.8226H39.3104L40.6108 99.7241H40.0788L39.7241 98.5418H38.3054L37.9507 99.7241H37.4778ZM38.6601 97.5369L38.4828 98.128H39.665L39.4877 97.5369C39.4286 97.3005 39.3695 97.1231 39.3104 96.8867C39.2512 96.6502 39.1921 96.4729 39.133 96.2364C39.0739 96.4729 39.0148 96.7093 38.9557 96.8867C38.7783 97.1231 38.7192 97.3005 38.6601 97.5369Z" fill="#1D1D1B"/>
<path d="M42.3251 99.7832C42.1478 99.7832 41.9704 99.7241 41.7931 99.665C41.6158 99.6059 41.4975 99.4877 41.3793 99.3694C41.2611 99.2512 41.1429 99.0739 41.0837 98.8965C41.0246 98.7192 40.9655 98.4827 40.9655 98.2463C40.9655 98.0098 41.0246 97.7734 41.0837 97.5961C41.1429 97.4187 41.2611 97.2414 41.3793 97.1231C41.4975 97.0049 41.6749 96.8867 41.8522 96.8276C42.0296 96.7685 42.2069 96.7094 42.3842 96.7094C42.5616 96.7094 42.7389 96.7685 42.8571 96.8276C42.9754 96.8867 43.0936 96.9458 43.2118 97.064L42.9754 97.3596C42.9163 97.3005 42.798 97.2414 42.6798 97.1822C42.5616 97.1231 42.5025 97.1231 42.3842 97.1231C42.266 97.1231 42.1478 97.1231 42.0296 97.1822C41.9113 97.2414 41.7931 97.3005 41.734 97.4187C41.6749 97.5369 41.6158 97.6552 41.5566 97.7734C41.4975 97.8916 41.4975 98.069 41.4975 98.2463C41.4975 98.4236 41.4975 98.5419 41.5566 98.7192C41.6158 98.8374 41.6749 98.9557 41.734 99.0739C41.7931 99.1921 41.9113 99.2512 42.0296 99.3103C42.1478 99.3694 42.266 99.3694 42.3842 99.3694C42.5025 99.3694 42.6207 99.3694 42.7389 99.3103C42.8571 99.2512 42.9754 99.1921 43.0345 99.0739L43.2709 99.3694C43.1527 99.4877 42.9754 99.6059 42.8571 99.665C42.6798 99.7832 42.5025 99.7832 42.3251 99.7832Z" fill="#1D1D1B"/>
<path d="M44.5714 99.7832C44.335 99.7832 44.0985 99.7241 43.9803 99.5468C43.8621 99.3694 43.7438 99.1921 43.7438 98.9556C43.7438 98.6601 43.8621 98.3645 44.1576 98.2463C44.4532 98.128 44.867 97.9507 45.5172 97.8916C45.5172 97.8325 45.5172 97.7143 45.5172 97.596C45.5172 97.5369 45.4581 97.4187 45.399 97.3596C45.3399 97.3005 45.2808 97.2413 45.2217 97.1822C45.1626 97.1231 45.0443 97.1231 44.9261 97.1231C44.7488 97.1231 44.6305 97.1231 44.4532 97.2413C44.2759 97.3596 44.1576 97.3596 44.0394 97.4778L43.8621 97.1231C43.9803 97.064 44.1576 96.9458 44.335 96.8867C44.5123 96.8275 44.7488 96.7684 44.9852 96.7684C45.3399 96.7684 45.5763 96.8867 45.7537 97.064C45.931 97.3005 45.9901 97.596 45.9901 97.9507V99.7241H45.5763L45.5172 99.3694C45.399 99.4876 45.2217 99.6059 45.0443 99.665C44.9261 99.7241 44.7488 99.7832 44.5714 99.7832ZM44.7488 99.3694C44.867 99.3694 45.0443 99.3103 45.1626 99.2512C45.2808 99.1921 45.399 99.0738 45.5763 98.9556V98.128C45.3399 98.128 45.1034 98.1872 44.9852 98.2463C44.867 98.3054 44.6896 98.3645 44.5714 98.4236C44.4532 98.4827 44.3941 98.5418 44.335 98.6601C44.2759 98.7783 44.2759 98.8374 44.2759 98.8965C44.2759 99.0739 44.335 99.1921 44.3941 99.2512C44.4532 99.3694 44.5714 99.3694 44.7488 99.3694Z" fill="#1D1D1B"/>
<path d="M47.9409 99.7832C47.5862 99.7832 47.2906 99.665 47.0542 99.3694C46.8177 99.0738 46.7586 98.7192 46.7586 98.2463C46.7586 98.0098 46.8177 97.7734 46.8768 97.596C46.9359 97.4187 47.0542 97.2413 47.1724 97.1231C47.2906 97.0049 47.4089 96.8867 47.5862 96.8275C47.7635 96.7684 47.8818 96.7093 48.0591 96.7093C48.2364 96.7093 48.3547 96.7093 48.4729 96.7684C48.5911 96.8275 48.7093 96.8867 48.8276 97.0049V96.532V95.4088H49.3005V99.6059H48.8867L48.8276 99.2512C48.7093 99.3694 48.5911 99.4876 48.4138 99.5467C48.2364 99.7241 48.1182 99.7832 47.9409 99.7832ZM48.0591 99.3694C48.1773 99.3694 48.2956 99.3103 48.4138 99.2512C48.532 99.1921 48.6502 99.0738 48.7685 98.9556V97.4778C48.6502 97.3596 48.532 97.3004 48.4138 97.2413C48.2956 97.1822 48.1773 97.1822 48.0591 97.1822C47.9409 97.1822 47.8226 97.1822 47.7635 97.2413C47.6453 97.3004 47.5862 97.3596 47.468 97.4778C47.3497 97.596 47.3497 97.7142 47.2906 97.8325C47.2315 97.9507 47.2315 98.128 47.2315 98.3054C47.2315 98.6601 47.2906 98.8965 47.468 99.133C47.5862 99.3103 47.7635 99.3694 48.0591 99.3694Z" fill="#1D1D1B"/>
<path d="M51.4286 99.7832C51.2512 99.7832 51.0739 99.7241 50.8966 99.665C50.7192 99.6059 50.601 99.4877 50.4828 99.3694C50.3645 99.2512 50.2463 99.0739 50.1872 98.8965C50.1281 98.7192 50.069 98.4827 50.069 98.2463C50.069 98.0098 50.1281 97.7734 50.1872 97.5961C50.2463 97.4187 50.3645 97.2414 50.4828 97.1231C50.601 97.0049 50.7192 96.8867 50.8966 96.8276C51.0739 96.7685 51.1921 96.7094 51.3695 96.7094C51.5468 96.7094 51.7241 96.7093 51.8424 96.8276C51.9606 96.8867 52.1379 97.0049 52.1971 97.1231C52.3153 97.2414 52.3744 97.3596 52.4335 97.5369C52.4926 97.7143 52.4926 97.8916 52.4926 98.0689C52.4926 98.1281 52.4926 98.1872 52.4926 98.2463C52.4926 98.3054 52.4926 98.3645 52.4926 98.3645H50.5419C50.5419 98.6601 50.6601 98.8965 50.8374 99.0739C51.0148 99.2512 51.2512 99.3694 51.4877 99.3694C51.6059 99.3694 51.7833 99.3694 51.8424 99.3103C51.9015 99.2512 52.0788 99.1921 52.1971 99.133L52.3744 99.4286C52.2562 99.4877 52.0788 99.5468 51.9606 99.665C51.8424 99.7832 51.665 99.7832 51.4286 99.7832ZM50.5419 98.0689H52.0788C52.0788 97.7734 52.0197 97.5369 51.9015 97.4187C51.7833 97.2414 51.6059 97.1822 51.3695 97.1822C51.2512 97.1822 51.1921 97.1823 51.0739 97.2414C50.9557 97.3005 50.8966 97.3596 50.8374 97.4187C50.7783 97.4778 50.7192 97.596 50.6601 97.7143C50.601 97.8325 50.5419 97.8916 50.5419 98.0689Z" fill="#1D1D1B"/>
<path d="M53.2611 99.7241V96.8276H53.6749L53.734 97.2414C53.8522 97.1231 54.0296 97.0049 54.1478 96.8867C54.266 96.7685 54.4433 96.7685 54.6207 96.7685C54.8571 96.7685 55.0345 96.8276 55.1527 96.8867C55.2709 97.0049 55.3892 97.1231 55.4483 97.3005C55.5665 97.1231 55.7438 97.0049 55.9212 96.8867C56.0985 96.7685 56.2167 96.7094 56.3941 96.7094C56.6897 96.7094 56.9261 96.8276 57.0443 97.0049C57.1626 97.1823 57.2808 97.4778 57.2808 97.8325V99.665H56.7488V97.8916C56.7488 97.5961 56.6897 97.4187 56.6305 97.3005C56.5714 97.1823 56.3941 97.1231 56.2167 97.1231C55.9803 97.1231 55.7438 97.2414 55.5074 97.5961V99.665H55.0345V97.8916C55.0345 97.5961 54.9754 97.4187 54.9163 97.3005C54.8571 97.1823 54.6798 97.1231 54.5025 97.1231C54.266 97.1231 54.0296 97.2414 53.7931 97.5961V99.665L53.2611 99.7241Z" fill="#1D1D1B"/>
<path d="M58.463 96.2364C58.3448 96.2364 58.2857 96.2364 58.2266 96.1773C58.1675 96.1182 58.1084 96.0591 58.1084 95.9408C58.1084 95.8226 58.1675 95.7635 58.2266 95.7044C58.2857 95.6453 58.3448 95.6453 58.463 95.6453C58.5813 95.6453 58.6404 95.6453 58.6995 95.7044C58.7586 95.7635 58.8177 95.8226 58.8177 95.9408C58.8177 95.9999 58.7586 96.1182 58.6995 96.1773C58.6404 96.2364 58.5222 96.2364 58.463 96.2364ZM58.1675 99.7241V96.8275H58.6404V99.7241H58.1675Z" fill="#1D1D1B"/>
<path d="M60.8276 99.7832C60.6503 99.7832 60.4729 99.7241 60.2956 99.665C60.1182 99.6059 60 99.4877 59.8818 99.3694C59.7636 99.2512 59.6453 99.0739 59.5862 98.8965C59.5271 98.7192 59.468 98.4827 59.468 98.2463C59.468 98.0098 59.5271 97.7734 59.5862 97.5961C59.6453 97.4187 59.7636 97.2414 59.8818 97.1231C60 97.0049 60.1773 96.8867 60.3547 96.8276C60.532 96.7685 60.7094 96.7094 60.8867 96.7094C61.064 96.7094 61.2414 96.7685 61.3596 96.8276C61.4778 96.8867 61.5961 96.9458 61.7143 97.064L61.4778 97.3596C61.4187 97.3005 61.3005 97.2414 61.1823 97.1822C61.064 97.1231 61.0049 97.1231 60.8867 97.1231C60.7685 97.1231 60.6503 97.1231 60.532 97.1822C60.4138 97.2414 60.2956 97.3005 60.2365 97.4187C60.1773 97.5369 60.1182 97.6552 60.0591 97.7734C60 97.8916 60 98.069 60 98.2463C60 98.4236 60 98.5419 60.0591 98.7192C60.1182 98.8374 60.1773 98.9557 60.2365 99.0739C60.2956 99.1921 60.4138 99.2512 60.532 99.3103C60.6503 99.3694 60.7685 99.3694 60.8867 99.3694C61.0049 99.3694 61.1232 99.3694 61.2414 99.3103C61.3596 99.2512 61.4778 99.1921 61.537 99.0739L61.7734 99.3694C61.6552 99.4877 61.4778 99.6059 61.3596 99.665C61.1823 99.7832 61.0049 99.7832 60.8276 99.7832Z" fill="#1D1D1B"/>
<path d="M63.665 99.7241V95.8226H65.9113V96.2364H64.1379V97.4778H65.6158V97.8916H64.1379V99.3103H65.9705V99.7241H63.665Z" fill="#1D1D1B"/>
<path d="M66.3842 99.7242L67.3301 98.2463L66.4434 96.8867H66.9754L67.3301 97.537C67.3892 97.5961 67.3892 97.7143 67.4483 97.7734C67.5074 97.8325 67.5665 97.9508 67.5665 98.0099C67.6256 97.9508 67.6256 97.8325 67.6847 97.7734C67.7439 97.7143 67.7438 97.5961 67.803 97.537L68.1576 96.8867H68.6897L67.803 98.3054L68.7488 99.7833H68.2168L67.803 99.133C67.7438 99.0739 67.6847 98.9557 67.6256 98.8966C67.5665 98.8375 67.5074 98.7192 67.4483 98.6601C67.3892 98.7192 67.3301 98.8375 67.3301 98.8966C67.2709 98.9557 67.2118 99.0739 67.2118 99.1921L66.798 99.8424L66.3842 99.7242Z" fill="#1D1D1B"/>
<path d="M70.5813 99.7832C70.4039 99.7832 70.2266 99.7241 70.0493 99.665C69.8719 99.6059 69.7537 99.4877 69.6355 99.3694C69.5172 99.2512 69.399 99.0739 69.3399 98.8965C69.2808 98.7192 69.2217 98.4827 69.2217 98.2463C69.2217 98.0098 69.2808 97.7734 69.3399 97.5961C69.399 97.4187 69.5172 97.2414 69.6355 97.1231C69.7537 97.0049 69.931 96.8867 70.1084 96.8276C70.2857 96.7685 70.4631 96.7094 70.6404 96.7094C70.8177 96.7094 70.9951 96.7685 71.1133 96.8276C71.2315 96.8867 71.3498 96.9458 71.468 97.064L71.2315 97.3596C71.1724 97.3005 71.0542 97.2414 70.936 97.1822C70.8177 97.1231 70.7586 97.1231 70.6404 97.1231C70.5222 97.1231 70.4039 97.1231 70.2857 97.1822C70.1675 97.2414 70.0493 97.3005 69.9902 97.4187C69.931 97.5369 69.8719 97.6552 69.8128 97.7734C69.7537 97.8916 69.7537 98.069 69.7537 98.2463C69.7537 98.4236 69.7537 98.5419 69.8128 98.7192C69.8719 98.8374 69.931 98.9557 69.9902 99.0739C70.0493 99.1921 70.1675 99.2512 70.2857 99.3103C70.4039 99.3694 70.5222 99.3694 70.6404 99.3694C70.7586 99.3694 70.8769 99.3694 70.9951 99.3103C71.1133 99.2512 71.2315 99.1921 71.2906 99.0739L71.5271 99.3694C71.4089 99.4877 71.2315 99.6059 71.1133 99.665C70.8769 99.7832 70.6995 99.7832 70.5813 99.7832Z" fill="#1D1D1B"/>
<path d="M72.1773 99.7241V95.5271H72.6502V96.7094V97.3005C72.7685 97.1823 72.9458 97.064 73.064 96.9458C73.1823 96.8276 73.3596 96.8276 73.5961 96.8276C73.8916 96.8276 74.1281 96.9458 74.2463 97.1232C74.3645 97.3005 74.4828 97.5961 74.4828 97.9507V99.7833H74.0098V98.0099C74.0098 97.7143 73.9507 97.5369 73.8916 97.4187C73.8325 97.3005 73.6552 97.2414 73.4778 97.2414C73.3596 97.2414 73.1823 97.3005 73.064 97.3596C72.9458 97.4187 72.8276 97.5369 72.6502 97.7143V99.7833L72.1773 99.7241Z" fill="#1D1D1B"/>
<path d="M76.0788 99.7832C75.8424 99.7832 75.6059 99.7241 75.4877 99.5468C75.3694 99.3694 75.2512 99.1921 75.2512 98.9556C75.2512 98.6601 75.3694 98.3645 75.665 98.2463C75.9606 98.0689 76.3744 97.9507 77.0246 97.8916C77.0246 97.8325 77.0246 97.7143 77.0246 97.596C77.0246 97.4778 76.9655 97.4187 76.9064 97.3596C76.8473 97.3005 76.7882 97.2413 76.7291 97.1822C76.6699 97.1231 76.5517 97.1231 76.4335 97.1231C76.2561 97.1231 76.1379 97.1231 75.9606 97.2413C75.7832 97.3596 75.665 97.3596 75.5468 97.4778L75.3694 97.1231C75.4877 97.064 75.665 96.9458 75.8424 96.8867C76.0197 96.8275 76.2561 96.7684 76.4926 96.7684C76.8473 96.7684 77.0837 96.8867 77.2611 97.064C77.4384 97.3005 77.4975 97.596 77.4975 97.9507V99.7241H77.0837L77.0246 99.3694C76.9064 99.4876 76.7291 99.6059 76.5517 99.665C76.4335 99.7241 76.2561 99.7832 76.0788 99.7832ZM76.197 99.3694C76.3153 99.3694 76.4926 99.3103 76.6108 99.2512C76.7291 99.1921 76.8473 99.0738 77.0246 98.9556V98.128C76.7882 98.128 76.5517 98.1872 76.4335 98.2463C76.3153 98.3054 76.1379 98.3645 76.0197 98.4236C75.9015 98.4827 75.8424 98.5418 75.7832 98.6601C75.7241 98.7783 75.7241 98.8374 75.7241 98.8965C75.7241 99.0739 75.7832 99.1921 75.8424 99.2512C75.9606 99.3694 76.0788 99.3694 76.197 99.3694Z" fill="#1D1D1B"/>
<path d="M78.4434 99.7241V96.8275H78.8572L78.9163 97.2413C79.0345 97.1231 79.2118 97.0049 79.3301 96.8867C79.4483 96.7684 79.6847 96.7684 79.8621 96.7684C80.1577 96.7684 80.3941 96.8867 80.5123 97.064C80.6306 97.2413 80.7488 97.5369 80.7488 97.8916V99.7241H80.2759V97.9507C80.2759 97.6551 80.2168 97.4778 80.1577 97.3596C80.0985 97.2413 79.9212 97.1822 79.7439 97.1822C79.6256 97.1822 79.4483 97.2413 79.3301 97.3005C79.2118 97.3596 79.0936 97.4778 78.9163 97.6551V99.7241H78.4434Z" fill="#1D1D1B"/>
<path d="M82.6404 101.025C82.4631 101.025 82.2857 101.025 82.1675 100.965C82.0493 100.906 81.8719 100.906 81.8128 100.788C81.6946 100.729 81.6355 100.67 81.5764 100.552C81.5172 100.433 81.5172 100.315 81.5172 100.197C81.5172 100.079 81.5764 99.9605 81.6355 99.8423C81.6946 99.7241 81.8128 99.6059 81.931 99.5468C81.8719 99.4876 81.8128 99.4285 81.7537 99.3694C81.6946 99.3103 81.6946 99.1921 81.6946 99.0739C81.6946 98.9556 81.7537 98.8374 81.8128 98.7783C81.8719 98.7192 81.931 98.6009 82.0493 98.5418C81.931 98.4827 81.8719 98.3645 81.8128 98.2463C81.7537 98.128 81.6946 97.9507 81.6946 97.7734C81.6946 97.596 81.6946 97.4778 81.7537 97.3596C81.8128 97.2413 81.8719 97.1231 81.9902 97.064C82.1084 97.0049 82.2266 96.8867 82.3448 96.8275C82.4631 96.7684 82.6404 96.7684 82.7586 96.7684C82.8177 96.7684 82.936 96.7684 82.9951 96.7684C83.0542 96.7684 83.1133 96.7684 83.1724 96.8275H84.1773V97.1822H83.5862C83.6453 97.2413 83.7044 97.3596 83.7635 97.4187C83.8227 97.5369 83.8227 97.6551 83.8227 97.7734C83.8227 97.9507 83.8227 98.0689 83.7635 98.1872C83.7044 98.3054 83.6453 98.4236 83.5271 98.4827C83.4089 98.5418 83.2906 98.6601 83.1724 98.6601C83.0542 98.6601 82.8769 98.7192 82.7586 98.7192C82.6995 98.7192 82.6404 98.7192 82.5222 98.7192C82.4039 98.7192 82.4039 98.6601 82.2857 98.6601C82.2266 98.7192 82.1675 98.7783 82.1675 98.7783C82.1675 98.7783 82.1084 98.8965 82.1084 98.9556C82.1084 99.0147 82.1675 99.133 82.2266 99.1921C82.2857 99.2512 82.4631 99.2512 82.6404 99.2512H83.1724C83.5271 99.2512 83.7636 99.3103 83.9409 99.4285C84.1182 99.5468 84.1773 99.7241 84.1773 99.9606C84.1773 100.079 84.1182 100.197 84.0591 100.315C84 100.433 83.8818 100.552 83.7635 100.611C83.6453 100.67 83.468 100.788 83.2906 100.847C83.0542 101.025 82.8769 101.025 82.6404 101.025ZM82.6995 100.729C82.8177 100.729 82.9951 100.729 83.0542 100.67C83.1724 100.611 83.2906 100.611 83.3498 100.552C83.4089 100.493 83.468 100.433 83.5271 100.374C83.5862 100.315 83.5862 100.256 83.5862 100.138C83.5862 100.02 83.5271 99.9014 83.468 99.8423C83.4089 99.7832 83.2315 99.7832 83.0542 99.7832H82.5813C82.5222 99.7832 82.4631 99.7832 82.4039 99.7832C82.3448 99.7832 82.2857 99.7832 82.2266 99.7241C82.1084 99.7832 82.0493 99.9014 81.9902 99.9606C81.931 100.02 81.931 100.138 81.931 100.197C81.931 100.374 81.9902 100.493 82.1675 100.552C82.2266 100.67 82.4631 100.729 82.6995 100.729ZM82.6404 98.4827C82.6995 98.4827 82.8177 98.4827 82.8769 98.4236C82.936 98.4236 82.9951 98.3645 83.0542 98.3054C83.1133 98.2463 83.1724 98.1871 83.1724 98.0689C83.1724 98.0098 83.2315 97.8916 83.2315 97.7734C83.2315 97.5369 83.1724 97.4187 83.0542 97.3005C82.936 97.1822 82.7586 97.1231 82.6404 97.1231C82.4631 97.1231 82.3448 97.1822 82.2266 97.3005C82.1084 97.4187 82.0493 97.596 82.0493 97.7734C82.0493 97.8916 82.0493 97.9507 82.1084 98.0689C82.1084 98.128 82.1675 98.2463 82.2266 98.3054C82.2857 98.3645 82.3448 98.4236 82.4039 98.4236C82.4631 98.4827 82.5813 98.4827 82.6404 98.4827Z" fill="#1D1D1B"/>
<path d="M85.8325 99.7832C85.6552 99.7832 85.4778 99.7241 85.3005 99.665C85.1232 99.6059 85.0049 99.4877 84.8867 99.3694C84.7685 99.2512 84.6502 99.0739 84.5911 98.8965C84.532 98.7192 84.4729 98.4827 84.4729 98.2463C84.4729 98.0098 84.532 97.7734 84.5911 97.5961C84.6502 97.4187 84.7685 97.2414 84.8867 97.1231C85.0049 97.0049 85.1232 96.8867 85.3005 96.8276C85.4778 96.7685 85.5961 96.7094 85.7734 96.7094C85.9507 96.7094 86.1281 96.7093 86.2463 96.8276C86.3645 96.8867 86.5419 97.0049 86.601 97.1231C86.7192 97.2414 86.7783 97.3596 86.8374 97.5369C86.8965 97.7143 86.8965 97.8916 86.8965 98.0689C86.8965 98.1281 86.8965 98.1872 86.8965 98.2463C86.8965 98.3054 86.8965 98.3645 86.8965 98.3645H84.9458C84.9458 98.6601 85.064 98.8965 85.2414 99.0739C85.4187 99.2512 85.6552 99.3694 85.8916 99.3694C86.0099 99.3694 86.1872 99.3694 86.2463 99.3103C86.3054 99.2512 86.4828 99.1921 86.601 99.133L86.7783 99.4286C86.6601 99.4877 86.4828 99.5468 86.3645 99.665C86.2463 99.7832 86.0098 99.7832 85.8325 99.7832ZM84.8867 98.0689H86.4236C86.4236 97.7734 86.3645 97.5369 86.2463 97.4187C86.1281 97.2414 85.9507 97.1822 85.7143 97.1822C85.5961 97.1822 85.5369 97.1823 85.4187 97.2414C85.3005 97.3005 85.2414 97.3596 85.1823 97.4187C85.1232 97.4778 85.064 97.596 85.0049 97.7143C84.9458 97.7734 84.8867 97.8916 84.8867 98.0689Z" fill="#1D1D1B"/>
<path d="M89.9704 99.7833C89.6749 99.7833 89.4384 99.7241 89.202 99.6059C88.9655 99.4877 88.7882 99.3695 88.6108 99.1921L88.9064 98.8374C89.0246 98.9557 89.202 99.133 89.3793 99.1921C89.5567 99.2512 89.734 99.3103 89.9704 99.3103C90.2069 99.3103 90.4434 99.2512 90.5616 99.133C90.6798 99.0148 90.798 98.8374 90.798 98.6601C90.798 98.5419 90.798 98.4828 90.7389 98.4236C90.6798 98.3645 90.6798 98.3054 90.6207 98.2463C90.5616 98.1872 90.5025 98.1281 90.3842 98.1281C90.3251 98.069 90.2069 98.069 90.1478 98.0099L89.6158 97.7734C89.5567 97.7143 89.4384 97.7143 89.3202 97.6552C89.202 97.5961 89.1429 97.5369 89.0837 97.4778C89.0246 97.4187 88.9655 97.3005 88.9064 97.1823C88.8473 97.064 88.8473 96.9458 88.8473 96.8276C88.8473 96.7094 88.8473 96.532 88.9655 96.4138C89.0246 96.2956 89.0837 96.1773 89.202 96.0591C89.3202 95.9409 89.4384 95.8818 89.5567 95.8227C89.6749 95.7636 89.8522 95.7635 90.0296 95.7635C90.266 95.7635 90.5025 95.8227 90.6798 95.8818C90.8571 95.9409 91.0345 96.1182 91.2118 96.2365L90.9163 96.532C90.798 96.4138 90.6798 96.2956 90.5025 96.2365C90.3251 96.1773 90.2069 96.1182 90.0296 96.1182C89.7931 96.1182 89.6158 96.1773 89.4975 96.2956C89.3793 96.4138 89.3202 96.532 89.3202 96.7094C89.3202 96.8276 89.3202 96.8867 89.3793 96.9458C89.4384 97.0049 89.4384 97.064 89.5567 97.1232C89.6158 97.1823 89.6749 97.2414 89.7931 97.2414C89.9113 97.2414 89.9705 97.3005 90.0296 97.3596L90.5616 97.5961C90.6798 97.6552 90.798 97.7143 90.8571 97.7734C90.9754 97.8325 91.0345 97.8916 91.0936 98.0099C91.1527 98.069 91.2118 98.1872 91.2709 98.3054C91.3301 98.4237 91.3301 98.5419 91.3301 98.6601C91.3301 98.8374 91.3301 98.9557 91.2118 99.0739C91.1527 99.1921 91.0936 99.3103 90.9163 99.4286C90.798 99.5468 90.6798 99.6059 90.5025 99.665C90.3251 99.7241 90.1478 99.7833 89.9704 99.7833Z" fill="#1D1D1B"/>
<path d="M93.2217 99.7832C93.0443 99.7832 92.867 99.7241 92.6897 99.665C92.5123 99.6059 92.3941 99.4877 92.2759 99.3694C92.1576 99.2512 92.0394 99.0739 91.9803 98.8965C91.9212 98.7192 91.8621 98.4827 91.8621 98.2463C91.8621 98.0098 91.9212 97.7734 91.9803 97.5961C92.0394 97.4187 92.1576 97.2414 92.2759 97.1231C92.3941 97.0049 92.5123 96.8867 92.6897 96.8276C92.867 96.7685 92.9852 96.7094 93.1626 96.7094C93.3399 96.7094 93.5172 96.7093 93.6355 96.8276C93.7537 96.8867 93.931 97.0049 93.9901 97.1231C94.1084 97.2414 94.1675 97.3596 94.2266 97.5369C94.2857 97.7143 94.2857 97.8916 94.2857 98.0689C94.2857 98.1281 94.2857 98.1872 94.2857 98.2463C94.2857 98.3054 94.2857 98.3645 94.2857 98.3645H92.335C92.335 98.6601 92.4532 98.8965 92.6305 99.0739C92.8079 99.2512 93.0443 99.3694 93.2808 99.3694C93.399 99.3694 93.5763 99.3694 93.6355 99.3103C93.6946 99.2512 93.8719 99.1921 93.9901 99.133L94.1675 99.4286C94.0493 99.4877 93.8719 99.5468 93.7537 99.665C93.6355 99.7832 93.399 99.7832 93.2217 99.7832ZM92.335 98.0689H93.8719C93.8719 97.7734 93.8128 97.5369 93.6946 97.4187C93.5763 97.2414 93.399 97.1822 93.1626 97.1822C93.0443 97.1822 92.9852 97.1823 92.867 97.2414C92.7488 97.3005 92.6896 97.3596 92.6305 97.4187C92.5714 97.4778 92.5123 97.596 92.4532 97.7143C92.335 97.7734 92.335 97.8916 92.335 98.0689Z" fill="#1D1D1B"/>
<path d="M95.0542 99.7241V96.8275H95.468L95.5271 97.3596C95.6453 97.1822 95.7636 97.064 95.8818 96.9458C96 96.8275 96.1774 96.7684 96.3547 96.7684C96.4729 96.7684 96.5911 96.7684 96.6503 96.8275L96.532 97.2413C96.4729 97.2413 96.4729 97.2413 96.4138 97.1822C96.3547 97.1231 96.3547 97.1822 96.2956 97.1822C96.1773 97.1822 96.0591 97.2413 95.9409 97.3005C95.8227 97.4187 95.7044 97.596 95.5862 97.8325V99.665L95.0542 99.7241Z" fill="#1D1D1B"/>
<path d="M97.8916 99.7242L96.8276 96.8276H97.3596L97.8916 98.4828C97.9507 98.601 97.9507 98.7784 98.0098 98.8966C98.069 99.0148 98.069 99.1922 98.1281 99.3104C98.1872 99.1922 98.1872 99.0148 98.2463 98.8966C98.3054 98.7784 98.3054 98.601 98.3645 98.4828L98.8965 96.8276H99.3694L98.3645 99.7242H97.8916Z" fill="#1D1D1B"/>
<path d="M100.315 96.2364C100.197 96.2364 100.138 96.2364 100.079 96.1773C100.02 96.1182 99.9606 96.0591 99.9606 95.9408C99.9606 95.8226 99.9606 95.7635 100.079 95.7044C100.197 95.6453 100.197 95.6453 100.315 95.6453C100.434 95.6453 100.493 95.6453 100.552 95.7044C100.611 95.7635 100.67 95.8226 100.67 95.9408C100.67 95.9999 100.67 96.1182 100.552 96.1773C100.434 96.2364 100.434 96.2364 100.315 96.2364ZM100.079 99.7241V96.8275H100.552V99.7241H100.079Z" fill="#1D1D1B"/>
<path d="M102.68 99.7832C102.502 99.7832 102.325 99.7241 102.148 99.665C101.97 99.6059 101.852 99.4877 101.734 99.3694C101.616 99.2512 101.498 99.0739 101.438 98.8965C101.379 98.7192 101.32 98.4827 101.32 98.2463C101.32 98.0098 101.379 97.7734 101.438 97.5961C101.498 97.4187 101.616 97.2414 101.734 97.1231C101.852 97.0049 102.03 96.8867 102.207 96.8276C102.384 96.7685 102.562 96.7094 102.739 96.7094C102.916 96.7094 103.094 96.7685 103.212 96.8276C103.33 96.8867 103.448 96.9458 103.566 97.064L103.33 97.3596C103.271 97.3005 103.153 97.2414 103.034 97.1822C102.916 97.1231 102.857 97.1231 102.739 97.1231C102.621 97.1231 102.502 97.1231 102.384 97.1822C102.266 97.2414 102.148 97.3005 102.089 97.4187C102.03 97.5369 101.97 97.6552 101.911 97.7734C101.852 97.8916 101.852 98.069 101.852 98.2463C101.852 98.4236 101.852 98.5419 101.911 98.7192C101.97 98.8965 102.03 98.9557 102.089 99.0739C102.148 99.1921 102.266 99.2512 102.384 99.3103C102.502 99.3694 102.621 99.3694 102.739 99.3694C102.857 99.3694 102.975 99.3694 103.094 99.3103C103.212 99.2512 103.33 99.1921 103.389 99.0739L103.626 99.3694C103.507 99.4877 103.33 99.6059 103.212 99.665C102.975 99.7832 102.857 99.7832 102.68 99.7832Z" fill="#1D1D1B"/>
<path d="M105.399 99.7832C105.222 99.7832 105.044 99.7241 104.867 99.665C104.69 99.6059 104.571 99.4877 104.453 99.3694C104.335 99.2512 104.217 99.0739 104.158 98.8965C104.099 98.7192 104.039 98.4827 104.039 98.2463C104.039 98.0098 104.099 97.7734 104.158 97.5961C104.217 97.4187 104.335 97.2414 104.453 97.1231C104.571 97.0049 104.69 96.8867 104.867 96.8276C105.044 96.7685 105.163 96.7094 105.34 96.7094C105.517 96.7094 105.695 96.7093 105.813 96.8276C105.931 96.8867 106.108 97.0049 106.168 97.1231C106.286 97.2414 106.345 97.3596 106.404 97.5369C106.463 97.7143 106.463 97.8916 106.463 98.0689C106.463 98.1281 106.463 98.1872 106.463 98.2463C106.463 98.3054 106.463 98.3645 106.463 98.3645H104.512C104.512 98.6601 104.631 98.8965 104.808 99.0739C104.985 99.2512 105.222 99.3694 105.458 99.3694C105.576 99.3694 105.754 99.3694 105.813 99.3103C105.872 99.2512 106.049 99.1921 106.168 99.133L106.345 99.4286C106.227 99.4877 106.049 99.5468 105.931 99.665C105.813 99.7832 105.576 99.7832 105.399 99.7832ZM104.512 98.0689H106.049C106.049 97.7734 105.99 97.5369 105.872 97.4187C105.754 97.2414 105.576 97.1822 105.34 97.1822C105.222 97.1822 105.163 97.1823 105.044 97.2414C104.926 97.3005 104.867 97.3596 104.808 97.4187C104.749 97.4778 104.69 97.596 104.631 97.7143C104.512 97.7734 104.512 97.8916 104.512 98.0689Z" fill="#1D1D1B"/>
<path d="M101.025 44.1577C101.025 65.9114 83.4089 83.5271 61.6552 83.5271C39.9015 83.5271 22.2857 65.9114 22.2857 44.1577C22.2857 22.404 39.9015 4.78821 61.6552 4.78821C83.4089 4.78821 101.025 22.404 101.025 44.1577Z" fill="#0069B4"/>
<path d="M45.931 44.1576C45.931 45.2216 45.6946 46.1674 45.2808 46.995C44.8079 47.8226 44.2167 48.4729 43.4483 48.9458C42.6798 49.4187 41.734 49.6551 40.7291 49.6551H38.3645V38.6601H40.7291C41.734 38.6601 42.6798 38.8965 43.4483 39.3694C44.2167 39.8423 44.867 40.4926 45.2808 41.3202C45.6946 42.0886 45.931 43.0344 45.931 44.1576ZM47.7635 44.1576C47.7635 43.0936 47.5862 42.1477 47.2315 41.261C46.8768 40.3743 46.4039 39.6059 45.8128 39.0147C45.1626 38.3645 44.4532 37.8916 43.5665 37.5369C42.6798 37.1822 41.734 37.0049 40.6699 37.0049H37.3596C37.064 37.0049 36.8867 37.064 36.7094 37.2413C36.532 37.4187 36.4138 37.6551 36.4138 37.9507V50.3645C36.4138 50.6601 36.4729 50.8374 36.7094 51.0147C36.9458 51.1921 37.1231 51.3103 37.3596 51.3103H40.6699C41.734 51.3103 42.6798 51.133 43.5665 50.7783C44.4532 50.4236 45.1626 49.9507 45.8128 49.3005C46.463 48.6502 46.936 47.8817 47.2906 46.995C47.5862 46.1674 47.7635 45.1625 47.7635 44.1576Z" fill="white"/>
<path d="M71.2906 46.5813H65.9704L68.6305 40.0788L71.2906 46.5813ZM74.7192 49.9507L69.5172 37.596C69.3399 37.1823 69.0443 36.9458 68.6305 36.9458C68.2167 36.9458 67.9212 37.1823 67.7438 37.596L62.601 49.8916C62.4828 50.2463 62.4828 50.5419 62.6601 50.8374C62.8374 51.133 63.133 51.3103 63.4286 51.3103C63.6059 51.3103 63.7832 51.2512 63.9606 51.1921C64.1379 51.133 64.2562 50.9557 64.3153 50.7192L65.3793 48.1773H71.9409L73.0049 50.7192C73.064 50.8965 73.1823 51.0148 73.3596 51.133C73.5369 51.2512 73.7143 51.3103 73.8916 51.3103C74.2463 51.3103 74.4828 51.1921 74.7192 50.8965C74.8374 50.601 74.8374 50.3054 74.7192 49.9507Z" fill="white"/>
<path d="M57.5763 46.5813H52.2561L54.9162 40.0788L57.5763 46.5813ZM61.0049 49.9507L55.8029 37.596C55.6256 37.1823 55.33 36.9458 54.9162 36.9458C54.5025 36.9458 54.2069 37.1823 54.0295 37.596L48.8867 49.8916C48.7685 50.2463 48.7685 50.5419 48.9458 50.8374C49.1231 51.133 49.4187 51.3103 49.7143 51.3103C49.8916 51.3103 50.069 51.2512 50.2463 51.1921C50.4236 51.133 50.5419 50.9557 50.601 50.7192L51.665 48.1773H58.2266L59.2906 50.7192C59.3497 50.8965 59.468 51.0148 59.6453 51.133C59.8226 51.2512 60 51.3103 60.1773 51.3103C60.532 51.3103 60.7685 51.1921 61.0049 50.8965C61.1231 50.601 61.1231 50.3054 61.0049 49.9507Z" fill="white"/>
<path d="M86.4236 44.1576C86.4236 45.2216 86.1872 46.1674 85.7734 46.995C85.3005 47.8226 84.7094 48.4729 83.9409 48.9458C83.1724 49.4187 82.2266 49.6551 81.2217 49.6551H78.8571V38.6601H81.2217C82.2266 38.6601 83.1724 38.8965 83.9409 39.3694C84.7094 39.8423 85.3596 40.4926 85.7734 41.3202C86.1872 42.0886 86.4236 43.0344 86.4236 44.1576ZM88.2562 44.1576C88.2562 43.0936 88.0788 42.1477 87.7241 41.261C87.3695 40.3743 86.8965 39.6059 86.2463 39.0147C85.5961 38.3645 84.8867 37.8916 84 37.5369C83.1133 37.1822 82.1675 37.0049 81.1034 37.0049H77.7931C77.4975 37.0049 77.3202 37.064 77.1429 37.2413C76.9655 37.4187 76.8473 37.6551 76.8473 37.9507V50.3645C76.8473 50.6601 76.9064 50.8374 77.1429 51.0147C77.3793 51.1921 77.5567 51.3103 77.7931 51.3103H81.1034C82.1675 51.3103 83.1133 51.133 84 50.7783C84.8867 50.4236 85.5961 49.9507 86.2463 49.3005C86.8965 48.6502 87.3695 47.8817 87.7241 46.995C88.0788 46.1674 88.2562 45.1625 88.2562 44.1576Z" fill="white"/>
</svg>
